<svg width="78" height="16" viewBox="0 0 78 16" fill="none" xmlns="http://www.w3.org/2000/svg">
<g clip-path="url(#clip0_25123_24208)">
<path d="M5.14931 6.76922L8.14493 3.77372L11.1421 6.7708L12.8852 5.02774L8.14493 0.287354L3.40625 5.02616L5.14931 6.76922Z" fill="white"/>
<path d="M3.91881 7.99987L2.17578 6.25684L0.432664 7.99995L2.1757 9.74298L3.91881 7.99987Z" fill="white"/>
<path d="M5.14992 9.23095L8.14554 12.2265L11.1426 9.22949L12.8867 10.9716L12.8858 10.9726L8.14554 15.7128L3.40673 10.9741L3.4043 10.9717L5.14992 9.23095Z" fill="white"/>
<path d="M14.1143 9.74385L15.8574 8.00073L14.1144 6.2577L12.3713 8.00082L14.1143 9.74385Z" fill="white"/>
<path d="M9.91266 7.99924H9.91339L8.14462 6.23047L6.83748 7.53761H6.83736L6.68726 7.68783L6.37744 7.99765L6.375 8.00009L6.37744 8.00265L8.14462 9.76983L9.91339 8.00106L9.91424 8.00009L9.91266 7.99924Z" fill="white"/>
<path d="M18.5762 4.02515H22.3672C23.3082 4.02515 24.0197 4.26662 24.5019 4.74956C24.875 5.12359 25.0616 5.58716 25.0616 6.14016V6.16355C25.0616 6.39723 25.0327 6.60374 24.9746 6.78283C24.9166 6.96217 24.8391 7.1236 24.7422 7.26772C24.6456 7.41197 24.5333 7.53856 24.4056 7.64748C24.2778 7.75664 24.1405 7.85021 23.9935 7.92794C24.4664 8.10727 24.8387 8.35057 25.1102 8.65832C25.3815 8.9662 25.5173 9.39273 25.5173 9.93793V9.9612C25.5173 10.3352 25.4455 10.6624 25.3016 10.9429C25.1577 11.2233 24.9516 11.4571 24.6832 11.6441C24.4148 11.8311 24.092 11.9712 23.7148 12.0648C23.3376 12.1582 22.9196 12.2049 22.4609 12.2049H18.5762V4.02515ZM21.9882 7.33205C22.3856 7.33205 22.7012 7.26407 22.9347 7.12762C23.1684 6.99129 23.2853 6.77113 23.2853 6.46741V6.44401C23.2853 6.17147 23.1839 5.96314 22.9814 5.81889C22.7788 5.67476 22.4866 5.60264 22.1051 5.60264H20.3289V7.33205H21.9882ZM22.4674 10.6275C22.8647 10.6275 23.1761 10.5556 23.4022 10.4114C23.6281 10.2672 23.7412 10.0432 23.7412 9.73935V9.71608C23.7412 9.44341 23.6359 9.22728 23.4256 9.06744C23.2152 8.90796 22.8764 8.82804 22.4089 8.82804H20.3289V10.6276L22.4674 10.6275Z" fill="white"/>
<path d="M27.7754 4.02515H29.5751V12.2051H27.7754V4.02515Z" fill="white"/>
<path d="M32.3008 4.02515H33.9599L37.7929 9.06171V4.02515H39.5691V12.2051H38.0384L34.0769 7.00505V12.2051H32.3008V4.02515Z" fill="white"/>
<path d="M45.0157 3.9668H46.675L50.1808 12.2051H48.2994L47.5515 10.3706H44.0925L43.3447 12.2051H41.5098L45.0157 3.9668ZM46.9088 8.78114L45.8219 6.1286L44.7354 8.78114H46.9088Z" fill="white"/>
<path d="M52.125 4.02515H53.7845L57.6172 9.06171V4.02515H59.3934V12.2051H57.8627L53.9012 7.00505V12.2051H52.125V4.02515Z" fill="white"/>
<path d="M65.869 12.3451C65.2689 12.3451 64.7121 12.2359 64.1978 12.018C63.6836 11.8 63.2396 11.5019 62.8657 11.1239C62.4917 10.7461 62.1994 10.3001 61.9894 9.78598C61.779 9.27172 61.6738 8.7225 61.6738 8.13819V8.11492C61.6738 7.53061 61.779 6.98346 61.9894 6.4731C62.1995 5.96287 62.4917 5.51489 62.8657 5.12929C63.2395 4.74369 63.6876 4.43971 64.2094 4.21773C64.7312 3.99576 65.3081 3.88477 65.9391 3.88477C66.3205 3.88477 66.6691 3.91608 66.9846 3.97821C67.3002 4.04071 67.5864 4.12624 67.8437 4.23528C68.1009 4.34444 68.3382 4.47687 68.5566 4.63258C68.7744 4.78852 68.9771 4.95982 69.1641 5.14683L68.0191 6.46725C67.6993 6.17912 67.3743 5.953 67.0432 5.7895C66.712 5.626 66.3401 5.54413 65.9273 5.54413C65.5844 5.54413 65.2669 5.6104 64.975 5.74284C64.6829 5.87527 64.4315 6.05826 64.2211 6.29194C64.0109 6.52561 63.8473 6.79645 63.7302 7.10407C63.6137 7.41195 63.5553 7.74102 63.5553 8.09153V8.1148C63.5553 8.46531 63.6137 8.79658 63.7302 9.10798C63.8473 9.41975 64.0086 9.69229 64.2154 9.92596C64.4216 10.1596 64.671 10.3448 64.9631 10.4812C65.2555 10.6176 65.5767 10.6856 65.9273 10.6856C66.3948 10.6856 66.7898 10.5999 67.1132 10.4285C67.4365 10.2573 67.758 10.0236 68.0774 9.72738L69.2226 10.8843C69.0122 11.1103 68.7937 11.3129 68.5682 11.4919C68.3422 11.6712 68.0949 11.825 67.826 11.9536C67.5574 12.082 67.263 12.1796 66.9439 12.2457C66.6243 12.3118 66.2661 12.3451 65.869 12.3451Z" fill="white"/>
<path d="M71.3418 4.02515H77.5001V5.62615H73.1181V7.28551H76.9744V8.88639H73.1181V10.6042H77.5588V12.2051H71.3418V4.02515Z" fill="white"/>
</g>
<defs>
<clipPath id="clip0_25123_24208">
<rect width="77" height="15.4254" fill="white" transform="translate(0.5 0.287354)"/>
</clipPath>
</defs>
</svg>
