<svg width="78" height="18" viewBox="0 0 78 18" fill="none" xmlns="http://www.w3.org/2000/svg">
<g clip-path="url(#clip0_25123_4077)">
<path d="M9.02165 6.09814L8.57031 7.92747C9.07426 8.04309 10.6698 8.57931 10.9322 7.54903C11.1946 6.51861 9.53601 6.22425 9.02165 6.09814Z" fill="white"/>
<path d="M8.3379 8.81079L7.83398 10.9134C8.45336 11.0711 10.3639 11.6809 10.6474 10.5455C10.9308 9.41009 8.95724 9.00013 8.3379 8.81079Z" fill="white"/>
<path d="M9.07203 0.400153C4.4688 0.394291 0.732424 4.12691 0.726569 8.73702C0.720716 13.3471 4.44775 17.0893 9.05111 17.0949C13.6543 17.1008 17.3909 13.3682 17.3965 8.75793C17.4025 4.14786 13.6754 0.405891 9.07203 0.400153ZM12.7461 7.55954C12.7072 8.22071 12.2289 8.77293 11.5808 8.90528C12.408 9.24206 12.8058 10.1866 12.4695 11.0148C12.4546 11.0516 12.4382 11.0879 12.4207 11.1235C11.9273 12.5322 10.7517 12.6585 9.20852 12.3535L8.83065 13.8779L7.9069 13.6466L8.26385 12.1537L7.53949 11.9645L7.16161 13.4679L6.25878 13.2366L6.63665 11.7122L5.97531 11.5546L4.76809 11.2602L5.21945 10.2089L5.90183 10.3665C6.07196 10.4083 6.24558 10.3123 6.30076 10.1457L6.89907 7.75924L7.35043 6.03506C7.38081 5.76975 7.19063 5.5299 6.92573 5.49946C6.92386 5.49921 6.92199 5.49909 6.92 5.49884L6.25866 5.33057L6.50015 4.3528L7.75981 4.66824L8.34767 4.8259L8.71507 3.32251L9.63883 3.55376L9.27141 5.01512L10.0062 5.18339L10.3737 3.72202L11.287 3.95328L10.9091 5.45667C12.0533 5.85619 12.9035 6.43446 12.7357 7.55929L12.7461 7.55954Z" fill="white"/>
<path d="M24.3886 6.35001C24.9543 6.34452 25.5139 6.46676 26.0262 6.70749C26.4797 6.92328 26.8782 7.23973 27.1915 7.63263C27.5037 8.03913 27.732 8.50362 27.8633 8.99934C28.0138 9.54717 28.0879 10.1132 28.0837 10.6814C28.1071 12.4669 27.4064 14.1853 26.1417 15.444C25.5434 16.0578 24.8299 16.5473 24.0422 16.8843C23.2219 17.2449 22.3347 17.4276 21.4389 17.4205H20.893C20.5417 17.4123 20.1912 17.3842 19.8432 17.3364C19.4329 17.2706 19.0263 17.1829 18.6254 17.0736C18.1967 16.9661 17.7811 16.8109 17.3867 16.611L20.8508 2.03976L24.0001 1.56665L22.7194 6.70762C22.9798 6.589 23.2504 6.49407 23.5278 6.42373C23.8093 6.35351 24.0984 6.3182 24.3885 6.31858L24.3886 6.35001ZM21.7223 14.9288C22.2246 14.9497 22.7227 14.8295 23.1604 14.582C23.5675 14.3545 23.9245 14.0469 24.2102 13.6778C24.4982 13.2848 24.7215 12.8483 24.8716 12.3847C25.0562 11.915 25.1593 11.4172 25.176 10.9128C25.1918 10.4253 25.0871 9.94141 24.8716 9.50413C24.6105 9.11841 24.1585 8.90824 23.6959 8.95744C23.448 8.9674 23.2018 9.00266 22.961 9.06256C22.6602 9.1317 22.3822 9.27646 22.1527 9.48306L20.7881 14.8552H21.7223V14.9394V14.9288Z" fill="white"/>
<path d="M31.3178 17.0629H28.3574L30.8559 6.54964H33.8266L31.3178 17.0629ZM32.7559 5.24593C32.35 5.24755 31.9551 5.11446 31.6326 4.8675C31.3026 4.58748 31.1301 4.16338 31.1707 3.73206C31.1688 3.46015 31.2261 3.19109 31.3387 2.94362C31.4594 2.72048 31.6195 2.52103 31.8111 2.35489C31.9993 2.17178 32.22 2.0256 32.462 1.92382C32.7109 1.81804 32.9789 1.7644 33.2493 1.76615C33.636 1.77289 34.0106 1.90161 34.32 2.13412C34.6657 2.40528 34.8545 2.83074 34.8239 3.26955C34.8251 3.55718 34.7605 3.84132 34.635 4.10015C34.528 4.33576 34.3785 4.54968 34.194 4.73091C34.0039 4.91152 33.7836 5.05734 33.5432 5.16199C33.2942 5.26776 33.0263 5.3214 32.7559 5.31965V5.24593Z" fill="white"/>
<path d="M36.4183 3.95309L39.5676 3.47998L38.8012 6.63397H42.1184L41.4885 9.03091H38.1818L37.3001 12.7421C37.2214 13.0236 37.172 13.3125 37.1531 13.6041C37.1359 13.8403 37.1717 14.0775 37.2581 14.298C37.3423 14.4934 37.4955 14.6506 37.6885 14.7395C37.9699 14.8603 38.2753 14.9143 38.5808 14.8973C38.9118 14.905 39.2426 14.8768 39.5676 14.8131C39.868 14.7402 40.1628 14.6453 40.4494 14.5293L40.6174 16.8211C40.1952 16.9737 39.7638 17.1 39.3262 17.1996C38.7843 17.3124 38.2315 17.3653 37.6781 17.3572C36.9549 17.3864 36.2349 17.2424 35.5786 16.9367C35.1132 16.6895 34.7437 16.2935 34.5288 15.8118C34.3072 15.2986 34.2101 14.7402 34.2453 14.1823C34.2795 13.5266 34.3744 12.8755 34.5288 12.2374L36.4183 3.95309Z" fill="white"/>
<path d="M41.9616 12.8996C41.9552 12.025 42.1044 11.1564 42.4024 10.3343C42.6809 9.55761 43.109 8.84321 43.6621 8.23167C44.219 7.61975 44.8986 7.13242 45.6566 6.80187C46.482 6.44763 47.3727 6.27214 48.2705 6.28673C48.8104 6.27987 49.3495 6.33637 49.8766 6.45499C50.3213 6.55616 50.7542 6.70422 51.1678 6.89655L50.118 9.2304C49.8465 9.12179 49.5697 9.02696 49.2886 8.94655C48.9469 8.85245 48.5931 8.80998 48.2388 8.82043C47.328 8.77099 46.4477 9.15721 45.8663 9.86115C45.2556 10.6445 44.9497 11.6234 45.0056 12.6156C44.9899 13.179 45.1395 13.7347 45.436 14.2136C45.8399 14.6817 46.4498 14.9181 47.0631 14.8443C47.4406 14.8475 47.8173 14.8087 48.1863 14.7288C48.5169 14.6568 48.8401 14.5546 49.1521 14.4239L49.3725 16.7999C48.9684 16.9562 48.5546 17.086 48.1338 17.189C47.6001 17.3103 47.0539 17.3667 46.5068 17.3572C45.7959 17.4045 45.0826 17.3116 44.4073 17.0839C43.8616 16.8686 43.3704 16.5346 42.9691 16.1062C42.5927 15.6947 42.316 15.2019 42.1608 14.6659C41.9876 14.1112 41.899 13.5334 41.8984 12.9522L41.9616 12.8996Z" fill="white"/>
<path d="M55.1153 17.3887C54.5051 17.3942 53.8996 17.2836 53.3307 17.0628C52.8364 16.8702 52.3942 16.564 52.0395 16.1692C51.6818 15.7495 51.417 15.2586 51.2627 14.7289C51.0829 14.1612 50.9944 13.5686 51.0003 12.9732C51.0016 12.1551 51.1328 11.3425 51.3888 10.5657C51.6416 9.78375 52.0326 9.05379 52.5434 8.4104C53.0524 7.76956 53.6842 7.23708 54.4015 6.84393C55.1737 6.4227 56.0417 6.20903 56.9209 6.22362C57.5445 6.20966 58.1647 6.3168 58.7475 6.53908C59.2428 6.73478 59.6852 7.04449 60.0387 7.44326C60.3956 7.86349 60.6603 8.35415 60.8155 8.88358C60.9966 9.45079 61.0852 10.0437 61.0779 10.6393C61.0703 11.4465 60.9393 12.2478 60.6895 13.0153C60.4439 13.794 60.0637 14.5235 59.5662 15.1705C59.0466 15.8313 58.3916 16.3726 57.6452 16.758C56.8548 17.1813 55.9694 17.3949 55.0733 17.3783L55.1153 17.3887ZM56.5534 8.7573C56.1337 8.7496 55.7235 8.88277 55.3881 9.13574C55.052 9.40159 54.7704 9.73001 54.5588 10.1029C54.3311 10.4969 54.1614 10.9219 54.0549 11.3644C53.9461 11.7942 53.8897 12.2354 53.8869 12.6786C53.8558 13.2192 53.9644 13.7587 54.2018 14.2451C54.4429 14.621 54.8698 14.8348 55.3145 14.8024C55.7344 14.811 56.1449 14.6776 56.4798 14.4239C56.8536 14.1727 57.1717 13.847 57.414 13.4672C57.6417 13.0732 57.8114 12.6482 57.918 12.2057C58.0111 11.7812 58.0535 11.347 58.0438 10.9126C58.0749 10.372 57.9664 9.83255 57.7289 9.34607C57.4789 8.9524 57.0265 8.73615 56.5636 8.78883L56.5534 8.7573Z" fill="white"/>
<path d="M64.2696 17.0635H61.2988L63.7973 6.55027H66.768L64.2696 17.0635ZM65.7078 5.24657C65.3018 5.24893 64.9066 5.11572 64.5845 4.86812C64.2388 4.59696 64.0499 4.1715 64.0806 3.73269C64.0787 3.46077 64.136 3.19172 64.2486 2.94426C64.3532 2.70115 64.5029 2.48001 64.6895 2.29241C64.8777 2.1093 65.0984 1.96312 65.3404 1.86133C65.5892 1.75531 65.8572 1.70167 66.1276 1.70367C66.5335 1.70205 66.9285 1.83513 67.2509 2.08211C67.5966 2.35327 67.7855 2.77873 67.7548 3.21754C67.7557 3.48934 67.6984 3.75825 67.5868 4.00598C67.4798 4.2416 67.3304 4.45551 67.1459 4.63675C66.9556 4.81724 66.7354 4.96304 66.495 5.06782C66.246 5.17359 65.9782 5.22723 65.7078 5.22548V5.24657Z" fill="white"/>
<path d="M68.9609 6.98088L69.6642 6.70759C69.9662 6.60831 70.2748 6.5311 70.5879 6.47634C70.9622 6.39327 71.3407 6.33003 71.7217 6.28712C72.2003 6.25394 72.6804 6.24695 73.1598 6.26604C74.4019 6.12497 75.6275 6.64311 76.393 7.63273C77.0161 8.77741 77.1304 10.1317 76.708 11.3649L75.3434 17.1262H72.3621L73.6848 11.5542C73.7675 11.2075 73.8306 10.8566 73.8737 10.5029C73.9242 10.2177 73.9242 9.92592 73.8737 9.64078C73.8146 9.38944 73.6651 9.16857 73.4539 9.02049C73.1873 8.85489 72.874 8.78106 72.5616 8.81024C72.1668 8.80967 71.773 8.84841 71.3859 8.92582L69.4753 17.042H66.4941L68.9609 6.98088Z" fill="white"/>
</g>
<defs>
<clipPath id="clip0_25123_4077">
<rect width="77" height="17.8316" fill="white" transform="translate(0.5 0.0842285)"/>
</clipPath>
</defs>
</svg>
