<svg width="14" height="14" viewBox="0 0 14 14" fill="none" xmlns="http://www.w3.org/2000/svg">
<path d="M12.9407 6.90506L7.65787 1.62499L7.30377 1.27088C7.22309 1.19073 7.11398 1.14575 7.00025 1.14575C6.88653 1.14575 6.77742 1.19073 6.69674 1.27088L1.05982 6.90506C0.97715 6.98741 0.911813 7.08549 0.867667 7.19351C0.823521 7.30152 0.801462 7.41729 0.802791 7.53397C0.80826 8.01522 1.20885 8.3994 1.6901 8.3994H2.27115V12.8523H11.7294V8.3994H12.3227C12.5565 8.3994 12.7766 8.3078 12.942 8.14237C13.0235 8.06117 13.088 7.96463 13.1319 7.85831C13.1758 7.752 13.1982 7.63804 13.1977 7.52303C13.1977 7.29061 13.1061 7.07049 12.9407 6.90506ZM7.76588 11.868H6.23463V9.07889H7.76588V11.868ZM10.745 7.41502V11.868H8.64088V8.75077C8.64088 8.44862 8.39615 8.20389 8.094 8.20389H5.9065C5.60435 8.20389 5.35963 8.44862 5.35963 8.75077V11.868H3.25553V7.41502H1.94303L7.00162 2.36053L7.31744 2.67635L12.0588 7.41502H10.745Z" fill="white" fill-opacity="0.45"/>
</svg>
