<svg width="28" height="21" viewBox="0 0 28 21" fill="none" xmlns="http://www.w3.org/2000/svg">
<g clip-path="url(#clip0_25123_19971)">
<path d="M23.2754 5.09433H26.1564C27.0405 5.09433 27.9948 6.09569 28.007 6.97719V18.1416C27.9001 19.2087 27.0933 19.9529 26.0288 20.0258L6.68086 20.0238C5.80001 20.0419 4.73292 19.0914 4.73292 18.206V14.9404C3.93712 14.8953 3.06271 15.0183 2.27915 14.8991C1.02133 14.7077 0.0857017 13.6471 0 12.3835L0.00193312 2.53617C0.0985891 1.28222 1.03293 0.240913 2.27979 0.0514668C8.51088 -0.0174811 14.7658 -0.0174811 20.9976 0.0514668C22.0911 0.148123 23.2761 1.36985 23.2761 2.47173V5.09433H23.2754ZM2.50532 1.08118C1.7295 1.18234 1.13539 1.78676 1.06257 2.5671L1.06386 12.446C1.18436 13.2341 1.79458 13.8114 2.59167 13.8791H20.6857C21.504 13.8146 22.1252 13.1922 22.2148 12.3828V2.5671C22.1297 1.75841 21.5002 1.13466 20.6857 1.07087L2.50532 1.08118ZM26.9458 15.9378V6.94433C26.9458 6.65372 26.4444 6.15626 26.1571 6.15626H23.2761V12.4789C23.2761 13.7315 21.8604 14.9829 20.6219 14.9416L5.79614 14.9404V15.9378H26.9458ZM5.7955 17.5784V18.1738C5.7955 18.5237 6.35094 18.9935 6.71179 18.9638L26.0926 18.9625C26.4303 18.9548 26.9458 18.5089 26.9458 18.1738V17.6268L26.8974 17.5784H5.7955Z" fill="white"/>
<path d="M3.33933 4.00665L6.68234 3.99827C6.808 3.99312 6.94783 4.07689 6.9562 4.20705C6.90208 4.95517 7.02257 5.79027 6.9562 6.52679C6.94009 6.704 6.86857 6.79743 6.68234 6.80001C5.6449 6.7259 4.48245 6.89344 3.45983 6.80001C3.32387 6.78776 3.20208 6.73815 3.18597 6.59123C3.26201 5.85085 3.09061 4.92424 3.18597 4.20705C3.19886 4.1091 3.25814 4.05627 3.33933 4.006V4.00665Z" fill="white"/>
<path d="M5.98793 10.5959H3.12305V11.6579H5.98793V10.5959Z" fill="white"/>
<path d="M10.818 10.5959H7.95312V11.6579H10.818V10.5959Z" fill="white"/>
<path d="M15.6461 10.5959H12.7812V11.6579H15.6461V10.5959Z" fill="white"/>
<path d="M20.4743 10.5959H17.6094V11.6579H20.4743V10.5959Z" fill="white"/>
</g>
<defs>
<clipPath id="clip0_25123_19971">
<rect width="28.007" height="20.0252" fill="white"/>
</clipPath>
</defs>
</svg>
