<svg width="16" height="16" viewBox="0 0 16 16" fill="none" xmlns="http://www.w3.org/2000/svg">
<g clip-path="url(#clip0_25123_12582)">
<path d="M3.9987 5.99992H13.2907L13.624 4.66659H5.33203V3.33325H14.4787C14.58 3.33325 14.68 3.35636 14.7711 3.40081C14.8622 3.44526 14.9419 3.50989 15.0043 3.58978C15.0666 3.66967 15.1099 3.76272 15.1309 3.86186C15.1519 3.961 15.15 4.06362 15.1254 4.16192L13.4587 10.8286C13.4226 10.9727 13.3393 11.1007 13.2222 11.1921C13.105 11.2836 12.9607 11.3332 12.812 11.3333H3.33203C3.15522 11.3333 2.98565 11.263 2.86063 11.138C2.7356 11.013 2.66536 10.8434 2.66536 10.6666V2.66659H1.33203V1.33325H3.33203C3.50884 1.33325 3.67841 1.40349 3.80344 1.52851C3.92846 1.65354 3.9987 1.82311 3.9987 1.99992V5.99992ZM3.9987 15.3333C3.64508 15.3333 3.30594 15.1928 3.05589 14.9427C2.80584 14.6927 2.66536 14.3535 2.66536 13.9999C2.66536 13.6463 2.80584 13.3072 3.05589 13.0571C3.30594 12.8071 3.64508 12.6666 3.9987 12.6666C4.35232 12.6666 4.69146 12.8071 4.94151 13.0571C5.19156 13.3072 5.33203 13.6463 5.33203 13.9999C5.33203 14.3535 5.19156 14.6927 4.94151 14.9427C4.69146 15.1928 4.35232 15.3333 3.9987 15.3333ZM11.9987 15.3333C11.6451 15.3333 11.3059 15.1928 11.0559 14.9427C10.8058 14.6927 10.6654 14.3535 10.6654 13.9999C10.6654 13.6463 10.8058 13.3072 11.0559 13.0571C11.3059 12.8071 11.6451 12.6666 11.9987 12.6666C12.3523 12.6666 12.6915 12.8071 12.9415 13.0571C13.1916 13.3072 13.332 13.6463 13.332 13.9999C13.332 14.3535 13.1916 14.6927 12.9415 14.9427C12.6915 15.1928 12.3523 15.3333 11.9987 15.3333Z" fill="#49AA19"/>
</g>
<defs>
<clipPath id="clip0_25123_12582">
<rect width="16" height="16" fill="white"/>
</clipPath>
</defs>
</svg>
