<svg width="25" height="20" viewBox="0 0 25 20" fill="none" xmlns="http://www.w3.org/2000/svg">
<path d="M6.38931 13.8839C7.56924 12.2873 8.82523 10.7345 10.1384 9.24562C12.5077 6.55931 15.5151 3.51424 18.4161 1.42092C19.201 0.854179 20.4192 0.00271708 21.4026 2.47076e-05C22.1141 -0.00199457 23.9967 0.119835 24.6328 0.337244C25.0723 0.488017 25.1013 0.936969 24.7991 1.24592C24.5069 1.54477 23.5397 1.99776 23.1237 2.26027C18.9829 4.8786 14.5943 9.26447 11.5021 13.0614C10.1889 14.6734 9.08235 16.4242 7.80146 18.0335C7.125 18.883 6.95875 19.1717 5.77276 19.0559C5.21611 19.0014 3.5879 18.679 3.2352 18.2651C3.10933 18.117 2.96125 17.7387 2.87779 17.5469C2.22085 16.0398 1.74497 14.658 0.961492 13.1772C0.225802 11.7865 -0.883454 10.6396 1.20111 9.72083C2.39787 9.19312 3.17395 9.17831 4.17214 10.0688C5.0337 10.8368 5.554 11.8794 5.9794 12.9342C6.0669 13.1509 6.19815 13.6699 6.29777 13.826C6.32402 13.8671 6.32806 13.8974 6.38998 13.8839H6.38931Z" fill="#49AA19"/>
</svg>
