<svg width="28" height="8" viewBox="0 0 28 8" fill="none" xmlns="http://www.w3.org/2000/svg">
<g clip-path="url(#clip0_25226_11279)">
<path d="M19.7132 5.87798H25.6662L24.987 7.44464L18.4162 7.44025C18.0612 7.38882 17.7489 7.16367 17.621 6.82625C17.4598 6.40104 17.6341 6.11003 17.7872 5.72307C18.0054 5.1718 18.3246 4.34645 18.5987 3.84221C18.7894 3.49163 19.1795 3.26271 19.5708 3.21693L24.8302 3.21944L25.15 2.49883L25.823 2.15326H19.6981C19.6191 2.15326 19.419 1.90678 19.4686 1.80142L19.9672 0.606675L20.0431 0.557129L26.3373 0.560265C28.2815 1.0482 26.8628 2.87387 26.4671 4.00151C26.1792 4.47502 25.7076 4.76916 25.1513 4.81557L20.1735 4.81933C20.1058 4.84254 19.7351 5.7306 19.7144 5.87861L19.7132 5.87798Z" fill="white"/>
<path d="M19.1483 0.555908C19.1539 0.59981 19.1458 0.639948 19.1333 0.681968C19.0793 0.866981 18.74 1.65909 18.6422 1.81901C18.5926 1.89929 18.3411 2.12068 18.2552 2.12068H11.7227L12.4119 2.46562L12.1297 3.18498H16.4691C16.5481 3.18498 16.9056 3.39194 16.9833 3.45403C17.2856 3.69486 17.4562 4.1276 17.4205 4.51205C17.3797 4.95044 16.7174 6.33145 16.4063 6.66071C16.1241 6.95987 15.3778 7.41143 14.9645 7.41143H8.33789L8.86408 6.16839C8.987 6.00407 9.13313 5.8454 9.35515 5.84478L14.9494 5.83098L15.3878 4.78173H11.1739C10.6295 4.78173 10.1165 4.12823 10.0921 3.60894C10.0733 3.2201 10.5549 2.13761 10.7663 1.77574C11.1313 1.15171 11.9629 0.555908 12.7098 0.555908H19.1483Z" fill="white"/>
<path d="M10.3756 0.587402C10.3982 0.608726 10.3129 0.794993 10.296 0.837013C10.1975 1.086 9.90021 1.84863 9.72837 1.99162C9.6713 2.03866 9.45116 2.1528 9.38845 2.1528H3.48245L4.13784 2.46889L4.14034 2.51028L2.73048 5.84679H8.11907C8.12471 5.88129 8.11468 5.90951 8.10464 5.94212C8.02687 6.18672 7.71078 6.93053 7.58222 7.14189C7.4894 7.29429 7.27302 7.42035 7.09742 7.44042L1.83803 7.44355C1.03024 7.37582 0.485236 6.64705 0.71666 5.85432C1.32689 4.59937 1.75901 3.12741 2.39997 1.90194C2.69473 1.33874 3.55834 0.587402 4.21874 0.587402H10.375H10.3756Z" fill="white"/>
</g>
<defs>
<clipPath id="clip0_25226_11279">
<rect width="26.672" height="6.88813" fill="white" transform="translate(0.664062 0.555908)"/>
</clipPath>
</defs>
</svg>
