<svg width="28" height="28" viewBox="0 0 28 28" fill="none" xmlns="http://www.w3.org/2000/svg">
<path fill-rule="evenodd" clip-rule="evenodd" d="M7.1745 15.7498L11.6662 20.6108L7.49534 21.5832L5.2495 19.6389L7.1745 15.7498ZM19.029 6.4165L20.9995 7.49975L20.3427 11.0832L15.7448 8.08309L19.029 6.4165ZM6.78075 6.4165C6.9995 6.4165 7.17509 6.42584 7.437 6.63525C7.80159 6.92692 9.14617 7.87892 9.14617 7.87892L9.39 8.31234C9.83392 8.3345 9.845 8.37475 10.4056 8.78659L22.7495 17.1598C22.6544 17.3657 21.1868 21.5832 21.1868 21.5832H18.9211L5.2495 7.14567C5.2495 7.14567 5.47234 7.06225 5.687 6.92692C6.02359 6.71517 6.44709 6.4165 6.78075 6.4165ZM8.45784 3.49984H3.4995C3.1915 3.65384 2.91617 3.83234 2.91617 4.44775V8.45817V9.69775L3.4925 11.3008L2.91617 12.104V12.7603L3.4995 13.1978V13.9998L2.91617 14.5832V16.7707L3.4995 17.1353V19.5415C2.8905 19.9749 2.91617 20.4894 2.91617 21.0809V23.8436C4.28059 24.1843 4.05425 24.4998 5.61409 24.4998C6.9925 24.4998 7.8745 24.4998 7.8745 24.4998C8.08567 24.4864 8.25017 24.4421 8.45784 24.4223C9.03767 24.3663 9.40575 23.9165 9.40575 23.9165L10.937 24.4998L11.5203 23.9165C11.5203 23.9165 12.2851 24.8633 12.4683 25.0832L12.9787 24.4998L14.5828 25.0832C14.5828 25.0832 15.1778 24.5121 15.8224 24.4998H18.9578C19.0057 24.4538 19.5412 23.9165 19.5412 23.9165C19.7868 24.0635 19.5698 24.4998 21.8016 24.4998C22.4176 24.4998 22.9683 24.354 22.9683 24.354C22.8738 24.039 22.8633 24.1032 22.6766 23.9165C22.6766 23.9165 24.1349 23.9165 25.0828 24.4998V15.4623L23.9162 15.8228C23.9389 15.6378 24.4779 15.3923 24.4995 15.0207C24.5269 14.5523 24.4738 12.9288 24.4056 12.5858C24.3706 12.4108 24.0363 11.8981 23.9162 11.7394C24.0591 11.3538 24.4995 11.0832 24.4995 11.0832V10.6457L25.0828 10.3056V7.84275L24.4995 5.39567L25.0828 4.76392V4.06625L24.4668 3.5325L22.466 3.20175L22.004 3.5325L21.773 3.1475C21.773 3.1475 18.749 2.91767 18.2007 2.91767C17.4989 2.91767 17.601 2.97017 17.3636 3.76059L16.3568 3.86325L16.2599 3.49984H15.2391L15.4071 3.31492C15.5856 3.14634 15.5232 3.214 15.6626 2.9165H12.1521C12.0973 3.01684 11.8966 3.24434 11.7385 3.49984C11.7385 3.49984 11.4305 3.49692 11.1995 3.65092C10.9685 3.80492 10.9697 4.08317 10.6617 4.08317C10.3537 4.08317 9.71492 4.08317 9.35325 4.08317C8.58325 4.08317 8.45784 3.49984 8.45784 3.49984Z" fill="#DC230E"/>
</svg>
