<svg width="78" height="24" viewBox="0 0 78 24" fill="none" xmlns="http://www.w3.org/2000/svg">
<g clip-path="url(#clip0_25123_2199)">
<path d="M27.3291 16.6868V15.0257H22.5046V12.8235H26.8404V11.2884H22.5046V9.36297H27.2289V7.7019H20.5371V16.6868H27.3291ZM30.9882 16.7498C31.1636 16.7498 31.3433 16.7456 31.5271 16.7372C31.7109 16.7287 31.878 16.712 32.0283 16.6868V15.3026C31.9448 15.3194 31.8571 15.332 31.7652 15.3404C31.6733 15.3488 31.5772 15.353 31.477 15.353C31.1762 15.353 30.9757 15.3026 30.8755 15.2019C30.7752 15.1012 30.725 14.8999 30.725 14.5979V11.3764H32.0283V10.1809H30.725V8.23044H28.9457V10.1809H27.868V11.3764H28.9457V15.2145C28.9457 15.5417 28.9999 15.806 29.1086 16.0073C29.2171 16.2086 29.3654 16.3639 29.5534 16.4729C29.7414 16.582 29.9586 16.6554 30.205 16.6931C30.4515 16.7309 30.7125 16.7498 30.9882 16.7498ZM34.6599 16.6868V13.2766C34.6599 12.6138 34.7685 12.1377 34.9857 11.8483C35.2029 11.5589 35.5538 11.4141 36.0384 11.4141C36.4644 11.4141 36.761 11.5463 36.928 11.8106C37.0952 12.0748 37.1787 12.4754 37.1787 13.0123V16.6868H38.9581V12.6852C38.9581 12.2825 38.9227 11.9154 38.8516 11.5841C38.7806 11.2527 38.6574 10.9717 38.4819 10.741C38.3065 10.5102 38.0663 10.3298 37.7614 10.1998C37.4564 10.0698 37.0659 10.0047 36.5897 10.0047C36.2556 10.0047 35.913 10.0907 35.5622 10.2627C35.2113 10.4347 34.9231 10.7095 34.6975 11.087H34.6599V7.7019H32.8804V16.6868H34.6599ZM43.3065 16.8504C44.0416 16.8504 44.6682 16.6826 45.1862 16.3471C45.7041 16.0115 46.0885 15.4536 46.339 14.6734H44.7727C44.7142 14.8747 44.5555 15.0656 44.2965 15.246C44.0375 15.4264 43.7284 15.5165 43.3691 15.5165C42.8679 15.5165 42.4836 15.3865 42.2163 15.1265C41.9489 14.8663 41.8028 14.4469 41.7777 13.868H46.4519C46.4853 13.3647 46.4435 12.8823 46.3265 12.4209C46.2096 11.9595 46.0195 11.5484 45.7564 11.1876C45.4932 10.8269 45.1569 10.5396 44.7476 10.3256C44.3383 10.1117 43.8579 10.0047 43.3065 10.0047C42.8136 10.0047 42.3646 10.0929 41.9593 10.2691C41.5542 10.4452 41.2054 10.6864 40.913 10.9926C40.6206 11.2988 40.395 11.6617 40.2363 12.0811C40.0776 12.5006 39.9982 12.9536 39.9982 13.4402C39.9982 13.9436 40.0755 14.4049 40.2301 14.8244C40.3846 15.2439 40.6039 15.6046 40.888 15.9066C41.172 16.2087 41.5187 16.4415 41.928 16.605C42.3374 16.7686 42.7969 16.8504 43.3065 16.8504ZM44.6724 12.7355H41.7777C41.7861 12.6096 41.8132 12.467 41.8591 12.3076C41.9051 12.1482 41.9844 11.9972 42.0972 11.8546C42.21 11.712 42.3604 11.5925 42.5484 11.4959C42.7363 11.3995 42.9723 11.3512 43.2564 11.3512C43.6908 11.3512 44.0145 11.4687 44.2276 11.7036C44.4406 11.9385 44.5889 12.2825 44.6724 12.7355ZM49.2839 16.6868V13.7548C49.2839 13.4611 49.3132 13.1885 49.3716 12.9368C49.4301 12.6852 49.5283 12.4649 49.6661 12.2762C49.804 12.0874 49.9856 11.9385 50.2112 11.8294C50.4368 11.7204 50.7125 11.6659 51.0383 11.6659C51.1469 11.6659 51.2597 11.6721 51.3766 11.6847C51.4936 11.6973 51.5939 11.712 51.6774 11.7288V10.0677C51.5353 10.0257 51.4059 10.0047 51.2889 10.0047C51.0633 10.0047 50.8461 10.0384 50.6373 10.1054C50.4284 10.1725 50.2321 10.2669 50.0483 10.3886C49.8645 10.5102 49.7016 10.657 49.5596 10.829C49.4176 11.001 49.3048 11.1876 49.2213 11.389H49.1962V10.1809H47.5045V16.6868H49.2839ZM55.3741 16.8504C56.1093 16.8504 56.7359 16.6826 57.2538 16.3471C57.7718 16.0115 58.156 15.4536 58.4067 14.6734H56.8402C56.7818 14.8747 56.623 15.0656 56.3641 15.246C56.1051 15.4264 55.796 15.5165 55.4368 15.5165C54.9355 15.5165 54.5512 15.3865 54.2839 15.1265C54.0166 14.8663 53.8703 14.4469 53.8453 13.868H58.5195C58.5529 13.3647 58.5111 12.8823 58.3941 12.4209C58.2772 11.9595 58.0871 11.5484 57.824 11.1876C57.5608 10.8269 57.2246 10.5396 56.8152 10.3256C56.4058 10.1117 55.9255 10.0047 55.3741 10.0047C54.8812 10.0047 54.4322 10.0929 54.027 10.2691C53.6218 10.4452 53.273 10.6864 52.9806 10.9926C52.6883 11.2988 52.4627 11.6617 52.304 12.0811C52.1452 12.5006 52.0659 12.9536 52.0659 13.4402C52.0659 13.9436 52.1431 14.4049 52.2977 14.8244C52.4522 15.2439 52.6715 15.6046 52.9556 15.9066C53.2396 16.2087 53.5863 16.4415 53.9957 16.605C54.4051 16.7686 54.8645 16.8504 55.3741 16.8504ZM56.74 12.7355H53.8453C53.8536 12.6096 53.8808 12.467 53.9268 12.3076C53.9727 12.1482 54.0521 11.9972 54.1648 11.8546C54.2776 11.712 54.428 11.5925 54.6159 11.4959C54.8039 11.3995 55.04 11.3512 55.324 11.3512C55.7584 11.3512 56.0821 11.4687 56.2951 11.7036C56.5082 11.9385 56.6565 12.2825 56.74 12.7355ZM61.9405 16.8504C62.3165 16.8504 62.684 16.7666 63.0432 16.5988C63.4025 16.431 63.6949 16.1583 63.9204 15.7808H63.958V16.6868H65.6497V10.1809H63.8703V13.5912C63.8703 14.2539 63.7617 14.73 63.5445 15.0195C63.3273 15.3089 62.9765 15.4536 62.4919 15.4536C62.0658 15.4536 61.7692 15.3215 61.6021 15.0572C61.4351 14.7929 61.3515 14.3924 61.3515 13.8554V10.1809H59.5721V14.1826C59.5721 14.5853 59.6076 14.9523 59.6787 15.2837C59.7496 15.6151 59.8728 15.8962 60.0482 16.1268C60.2237 16.3575 60.4639 16.5358 60.7688 16.6617C61.0738 16.7875 61.4643 16.8504 61.9405 16.8504ZM68.8327 16.6868V12.9117C68.8327 12.5929 68.8787 12.3349 68.9706 12.1377C69.0624 11.9406 69.1731 11.7896 69.3027 11.6847C69.4321 11.5799 69.5658 11.5085 69.7037 11.4708C69.8415 11.433 69.9522 11.4141 70.0357 11.4141C70.3197 11.4141 70.5349 11.4624 70.6811 11.5589C70.8273 11.6554 70.9317 11.7833 70.9944 11.9427C71.057 12.1021 71.0925 12.2762 71.1009 12.4649C71.1093 12.6537 71.1134 12.8445 71.1134 13.0375V16.6868H72.8928V13.0626C72.8928 12.8613 72.9075 12.6621 72.9367 12.4649C72.966 12.2678 73.0244 12.0916 73.1122 11.9364C73.1998 11.7812 73.321 11.6554 73.4755 11.5589C73.6301 11.4624 73.8327 11.4141 74.0833 11.4141C74.334 11.4141 74.5323 11.4561 74.6786 11.54C74.8248 11.6239 74.9355 11.7372 75.0106 11.8798C75.0858 12.0224 75.1318 12.1902 75.1485 12.3831C75.1652 12.5761 75.1736 12.7816 75.1736 12.9997V16.6868H76.9528V12.3328C76.9528 11.9133 76.8949 11.5547 76.7775 11.2569C76.6606 10.9591 76.4977 10.7179 76.2888 10.5333C76.08 10.3487 75.8294 10.2145 75.5369 10.1306C75.2445 10.0467 74.9271 10.0047 74.5846 10.0047C74.1335 10.0047 73.7429 10.1138 73.4129 10.3319C73.0829 10.5501 72.8219 10.8017 72.6297 11.087C72.4542 10.6843 72.1974 10.4032 71.859 10.2439C71.5206 10.0845 71.1468 10.0047 70.7374 10.0047C70.3114 10.0047 69.9334 10.0971 69.6034 10.2816C69.2734 10.4662 68.9915 10.7263 68.7576 11.0618H68.7325V10.1809H67.0533V16.6868H68.8327Z" fill="white"/>
<g opacity="0.6">
<path d="M7.32183 9.51099L0.755859 12.4971L7.32183 16.3763L13.8852 12.4971L7.32183 9.51099Z" fill="white"/>
</g>
<g opacity="0.45">
<path d="M0.755859 12.4973L7.32183 16.3765V1.60303L0.755859 12.4973Z" fill="white"/>
</g>
<g opacity="0.8">
<path d="M7.32031 1.60303V16.3765L13.8837 12.4973L7.32031 1.60303Z" fill="white"/>
</g>
<g opacity="0.45">
<path d="M0.755859 13.7415L7.32183 22.9916V17.6207L0.755859 13.7415Z" fill="white"/>
</g>
<g opacity="0.8">
<path d="M7.32031 17.6207V22.9916L13.8889 13.7415L7.32031 17.6207Z" fill="white"/>
</g>
</g>
<defs>
<clipPath id="clip0_25123_2199">
<rect width="77" height="22.1089" fill="white" transform="translate(0.5 0.945557)"/>
</clipPath>
</defs>
</svg>
