<svg width="13" height="14" viewBox="0 0 13 14" fill="none" xmlns="http://www.w3.org/2000/svg">
<circle cx="6.5" cy="7" r="6.5" fill="#B1B1B1"/>
<g clip-path="url(#clip0_24899_26711)">
<path d="M7.11346 5.41443C7.15056 5.45153 7.17905 5.53405 7.17163 5.58717L6.37056 8.78672C6.32811 9.03425 6.24323 9.46135 6.62314 9.43969C7.00305 9.41802 7.04489 8.89297 7.25592 8.7695C7.34526 8.71727 7.44261 8.71103 7.53136 8.76654C7.75337 8.90485 7.61594 9.17612 7.53076 9.35569C7.30697 9.82701 6.94754 10.1956 6.40024 10.239C5.31868 10.3248 4.9919 9.64003 5.18394 8.66562C5.32225 7.96338 5.55939 7.27599 5.69473 6.57197C5.6612 6.25706 5.308 6.39122 5.10172 6.35382C5.01416 6.33779 4.93937 6.23391 4.94352 6.14457C4.94709 6.07037 5.03761 5.76021 5.06521 5.67265C5.12457 5.48656 5.20946 5.38683 5.4104 5.35151C5.90161 5.3809 6.44891 5.30699 6.93389 5.34943C6.99177 5.35448 7.07161 5.37259 7.11346 5.41414V5.41443Z" fill="#2B2B2B"/>
<path d="M6.61177 3.22028C7.68323 3.08553 7.77406 4.62208 6.7854 4.68293C5.82762 4.74199 5.7175 3.33277 6.61177 3.22028Z" fill="#2B2B2B"/>
</g>
<defs>
<clipPath id="clip0_24899_26711">
<rect width="2.70833" height="7.03425" fill="white" transform="translate(4.94336 3.21191)"/>
</clipPath>
</defs>
</svg>
