<svg width="78" height="34" viewBox="0 0 78 34" fill="none" xmlns="http://www.w3.org/2000/svg">
<path d="M7.35527 8.63313C7.13108 8.41329 7.01393 8.14282 7.00091 7.82462C6.99223 7.60044 7.04575 7.37336 7.15712 7.1781C7.2844 6.95391 7.46808 6.78469 7.70673 6.67187C7.84558 6.60679 7.9989 6.57063 8.15221 6.5634C8.51958 6.54893 8.8291 6.67187 9.08222 6.93366C9.3064 7.16508 9.42645 7.48328 9.41922 7.80582C9.41199 8.12836 9.29483 8.4075 9.07065 8.63169C8.84646 8.85587 8.5514 8.98026 8.21006 8.98026C7.86872 8.98026 7.59102 8.86455 7.35527 8.63169V8.63313ZM9.12416 10.7419C9.17044 10.7882 9.19359 10.8533 9.19359 10.9386V20.3862C9.19359 20.5569 9.10536 20.6422 8.9289 20.6422H7.49267C7.31622 20.6422 7.22799 20.5569 7.22799 20.3862V10.9386C7.22799 10.7925 7.34659 10.6739 7.49267 10.6739H8.92746C9.01279 10.6739 9.07788 10.6971 9.12416 10.7434V10.7419Z" fill="white"/>
<path d="M19.3884 10.9676C19.9843 11.3089 20.4486 11.7949 20.7798 12.427C21.111 13.059 21.2759 13.7923 21.2759 14.624V20.3646C21.2759 20.4499 21.2513 20.5164 21.2022 20.5656C21.153 20.6148 21.0865 20.6394 21.0011 20.6394H19.5851C19.4998 20.6394 19.4333 20.6148 19.3841 20.5656C19.3349 20.5164 19.3103 20.4499 19.3103 20.3646V14.731C19.3103 14.2523 19.2047 13.8227 18.9965 13.4438C18.7867 13.0634 18.4888 12.7683 18.1012 12.5586C17.715 12.3489 17.2724 12.2433 16.7734 12.2433C16.2744 12.2433 15.8145 12.3604 15.3921 12.5919C14.9698 12.8247 14.6328 13.1371 14.384 13.5305C14.1353 13.924 14.0109 14.3463 14.0109 14.799V20.3733C14.0109 20.4586 13.9863 20.5251 13.9371 20.5743C13.8879 20.6235 13.8214 20.6481 13.7361 20.6481H12.31C12.1581 20.6481 12.0352 20.5251 12.0352 20.3733V10.9589C12.0352 10.8736 12.0597 10.8056 12.1089 10.7521C12.1581 10.7 12.2246 10.674 12.31 10.674H13.146C13.2834 10.674 13.3788 10.7434 13.4309 10.8808L13.7939 12.5427C14.0036 12.1363 14.2915 11.7761 14.6588 11.4608C15.0349 11.1383 15.463 10.8881 15.9447 10.7102C16.4263 10.5322 16.9788 10.444 17.5111 10.4614C18.2082 10.4831 18.833 10.6537 19.3884 10.9705V10.9676Z" fill="white"/>
<path d="M26.0147 12.6831C25.7876 12.8552 25.6488 13.13 25.6488 13.4149C25.6488 13.5986 25.6994 13.7563 25.8007 13.8879C25.9019 14.0195 26.0827 14.1453 26.3416 14.2668C26.6005 14.3883 26.9722 14.5214 27.4567 14.6646C28.2103 14.8873 28.8279 15.1404 29.3095 15.421C29.7912 15.7016 30.1585 16.0502 30.4102 16.4624C30.6619 16.8761 30.7891 17.3765 30.7891 17.9666C30.7891 18.5567 30.6315 19.0875 30.3176 19.52C30.0038 19.9525 29.5655 20.2822 29.0058 20.5079C28.446 20.7335 27.801 20.8463 27.0734 20.8463C26.3459 20.8463 25.6849 20.706 25.0341 20.424C24.3818 20.1419 23.8365 19.7427 23.3968 19.2249C23.3115 19.1396 23.2695 19.0543 23.2695 18.9689C23.2695 18.8836 23.3158 18.7954 23.4069 18.7042L24.2531 17.8292C24.3254 17.7569 24.4035 17.7207 24.4888 17.7207C24.5872 17.7207 24.6855 17.7699 24.7839 17.8683C25.0529 18.1763 25.4 18.4265 25.8252 18.6204C26.2519 18.8142 26.667 18.9096 27.0734 18.9096C27.5782 18.9096 27.9904 18.82 28.3115 18.6392C28.6326 18.4584 28.7932 18.2053 28.7932 17.8769C28.7932 17.5486 28.6442 17.2984 28.3462 17.0858C28.0483 16.8732 27.5811 16.6707 26.9447 16.4812C26.197 16.2642 25.5909 16.027 25.1267 15.7681C24.6609 15.5092 24.3022 15.1795 24.0506 14.7803C23.7989 14.3811 23.6716 13.8792 23.6716 13.2761C23.6716 12.7785 23.8032 12.3142 24.065 11.8847C24.3268 11.4551 24.7058 11.1109 25.2004 10.852C25.6951 10.5931 26.2765 10.4644 26.9447 10.4644C27.6129 10.4644 28.2016 10.5945 28.7686 10.852C29.3355 11.1109 29.8316 11.4826 30.2583 11.9671C30.3306 12.0452 30.3668 12.1277 30.3668 12.213C30.3668 12.3114 30.3147 12.4097 30.2091 12.5081L29.4527 13.2153C29.3876 13.2804 29.2951 13.3137 29.1779 13.3137C29.0665 13.3137 28.9653 13.2746 28.8727 13.1951C28.3882 12.6715 27.746 12.4083 26.9462 12.4083C26.5629 12.4083 26.2534 12.4979 26.0147 12.6773V12.6831Z" fill="white"/>
<path d="M42.6972 20.4052C42.6972 20.4514 42.6798 20.4934 42.6436 20.5324C42.6075 20.5715 42.5569 20.5975 42.4918 20.6105H40.8892C40.8111 20.6236 40.7446 20.6149 40.6925 20.5859C40.6404 20.557 40.5811 20.4992 40.516 20.4138L36.6037 15.489L34.9129 17.1509V20.3849C34.9129 20.4702 34.8897 20.5353 34.8434 20.5816C34.7972 20.6279 34.7321 20.651 34.6467 20.651H33.2119C33.0659 20.651 32.9473 20.5324 32.9473 20.3864V5.92568C32.9473 5.75501 33.0355 5.66968 33.2119 5.66968H34.6467C34.8232 5.66968 34.9114 5.75501 34.9114 5.92568V15.1665L39.1579 10.8216C39.2563 10.7175 39.3517 10.6639 39.4429 10.6639C39.4891 10.6639 39.5412 10.6741 39.6005 10.6929H41.1336C41.271 10.7131 41.3405 10.7782 41.3405 10.8896C41.3405 10.9489 41.3144 11.0111 41.2624 11.0762L38.1165 14.4389L42.6191 20.2099C42.6711 20.2822 42.6972 20.3473 42.6972 20.4066V20.4052Z" fill="white"/>
<path d="M59.0994 10.9676C59.6953 11.3089 60.1596 11.7949 60.4908 12.427C60.822 13.059 60.9869 13.7923 60.9869 14.624V20.3646C60.9869 20.4499 60.9623 20.5164 60.9131 20.5656C60.8639 20.6148 60.7974 20.6394 60.7121 20.6394H59.2961C59.2107 20.6394 59.1442 20.6148 59.095 20.5656C59.0459 20.5164 59.0213 20.4499 59.0213 20.3646V14.731C59.0213 14.2523 58.9157 13.8227 58.7074 13.4438C58.4977 13.0634 58.1997 12.7683 57.8121 12.5586C57.4259 12.3489 56.9834 12.2433 56.4844 12.2433C55.9854 12.2433 55.5254 12.3604 55.1031 12.5919C54.6808 12.8247 54.3438 13.1371 54.095 13.5305C53.8462 13.924 53.7218 14.3463 53.7218 14.799V20.3733C53.7218 20.4586 53.6972 20.5251 53.6481 20.5743C53.5989 20.6235 53.5323 20.6481 53.447 20.6481H52.0209C51.869 20.6481 51.7461 20.5251 51.7461 20.3733V10.9589C51.7461 10.8736 51.7707 10.8056 51.8199 10.7521C51.869 10.7 51.9356 10.674 52.0209 10.674H52.8569C52.9943 10.674 53.0898 10.7434 53.1418 10.8808L53.5049 12.5427C53.7146 12.1363 54.0024 11.7761 54.3698 11.4608C54.7458 11.1383 55.1754 10.8881 55.6556 10.7102C56.1358 10.5322 56.6897 10.444 57.222 10.4614C57.9177 10.4831 58.544 10.6537 59.0979 10.9705L59.0994 10.9676Z" fill="white"/>
<path d="M65.7257 12.6831C65.4986 12.8552 65.3597 13.13 65.3597 13.4149C65.3597 13.5986 65.4103 13.7563 65.5116 13.8879C65.6128 14.0195 65.7936 14.1453 66.0525 14.2668C66.3114 14.3883 66.6831 14.5214 67.1677 14.6646C67.9212 14.8873 68.5388 15.1404 69.0205 15.421C69.5021 15.7016 69.8695 16.0502 70.1211 16.4624C70.3728 16.8761 70.5001 17.3765 70.5001 17.9666C70.5001 18.5567 70.3424 19.0875 70.0286 19.52C69.7147 19.9525 69.2765 20.2822 68.7167 20.5079C68.157 20.7335 67.5119 20.8463 66.7844 20.8463C66.0569 20.8463 65.3959 20.706 64.745 20.424C64.0927 20.1419 63.5474 19.7427 63.1077 19.2249C63.0224 19.1396 62.9805 19.0543 62.9805 18.9689C62.9805 18.8836 63.0267 18.7954 63.1179 18.7042L63.964 17.8292C64.0363 17.7569 64.1144 17.7207 64.1997 17.7207C64.2981 17.7207 64.3965 17.7699 64.4948 17.8683C64.7638 18.1763 65.111 18.4265 65.5376 18.6204C65.9629 18.8142 66.3794 18.9096 66.7858 18.9096C67.2906 18.9096 67.7028 18.82 68.0239 18.6392C68.345 18.4584 68.5055 18.2053 68.5055 17.8769C68.5055 17.5486 68.3566 17.2984 68.0586 17.0858C67.7607 16.8732 67.2935 16.6707 66.6571 16.4812C65.9093 16.2642 65.3033 16.027 64.839 15.7681C64.3733 15.5092 64.0146 15.1795 63.7629 14.7803C63.5098 14.3811 63.384 13.8792 63.384 13.2761C63.384 12.7785 63.5156 12.3142 63.7774 11.8847C64.0392 11.4551 64.4181 11.1109 64.9128 10.852C65.4075 10.5931 65.9889 10.4644 66.6571 10.4644C67.3253 10.4644 67.914 10.5945 68.481 10.852C69.0479 11.1109 69.544 11.4826 69.9707 11.9671C70.043 12.0452 70.0792 12.1277 70.0792 12.213C70.0792 12.3114 70.0271 12.4097 69.9215 12.5081L69.1651 13.2153C69.1 13.2804 69.0074 13.3137 68.8903 13.3137C68.7789 13.3137 68.6777 13.2746 68.5851 13.1951C68.1006 12.6715 67.4584 12.4083 66.6586 12.4083C66.2753 12.4083 65.9643 12.4979 65.7271 12.6787L65.7257 12.6831Z" fill="white"/>
<path d="M51.3091 2.86816C51.3091 2.88432 51.3062 2.90048 51.3047 2.91665C51.3003 2.91665 51.2974 2.91371 51.293 2.91371C51.2988 2.89755 51.3033 2.88286 51.3091 2.86816Z" fill="#3CB400"/>
<path d="M52.6438 3.13704C52.5788 2.44568 51.9337 1.92499 51.2438 2.00888C50.5539 2.09277 50.0476 2.74363 50.1532 3.44077C50.227 3.92386 50.5683 4.3028 51.0037 4.44454C50.4179 6.45498 49.4315 9.47063 48.3004 10.4064C48.1404 10.5388 47.93 10.56 47.753 10.4879C47.5279 10.3961 47.4399 10.1375 47.3536 9.91026L47.2115 9.53605C46.5765 11.0176 46.1908 11.3467 45.8139 11.2893C45.5237 11.2452 45.3296 10.9706 45.2519 10.6875C45.1688 10.3848 45.1043 9.98738 45.1406 9.53605C44.3928 11.1137 44.3707 12.0567 44.2593 13.5768C44.1942 14.4692 44.3625 16.6834 44.6229 17.4746C44.7954 17.0719 44.9478 16.591 45.2139 16.27C45.4482 15.9865 45.9168 16.1456 45.9197 16.5129C45.9284 17.6483 45.1054 20.0797 44.8769 20.5989C44.7843 20.8086 44.4372 21.5463 44.0872 22.0756C43.863 22.4141 43.3452 22.3374 43.2295 21.9483L42.9952 21.1659C42.4456 23.7577 41.7137 26.6447 39.793 28.5741C40.7042 28.1662 43.3901 26.3279 47.5353 20.0927L46.1989 21.487C46.089 21.6012 45.9053 21.6258 45.7809 21.5275C45.6565 21.4291 45.6825 21.3163 45.723 21.0559C45.8373 20.3125 46.9639 18.5676 47.4416 17.5321C47.7526 16.8581 48.1544 16.0067 48.4509 15.3327C49.9507 11.9164 50.8865 8.2123 51.3739 4.5024C51.4419 4.50529 51.5113 4.49951 51.5808 4.48938C52.2432 4.38958 52.706 3.79079 52.6438 3.1327V3.13704ZM51.5113 3.99328C51.4853 3.99762 51.4622 3.99907 51.4376 4.00051C51.3363 4.0063 51.2365 3.99183 51.1454 3.96002C50.8807 3.86889 50.6768 3.64037 50.6305 3.34531C50.5669 2.92298 50.8576 2.52812 51.2799 2.46448C51.3841 2.44857 51.4882 2.45436 51.5837 2.48039C51.5894 2.46448 51.5938 2.45002 51.5996 2.43556C51.5996 2.45147 51.5967 2.46738 51.5952 2.48329C51.8831 2.56139 52.1116 2.80148 52.1593 3.11534C52.223 3.53768 51.9337 3.93109 51.5099 3.99473L51.5113 3.99328Z" fill="#3CB400"/>
<path d="M51.3111 2.86816C51.3111 2.88432 51.3081 2.90048 51.3067 2.91665C51.3023 2.91665 51.2993 2.91371 51.2949 2.91371C51.3008 2.89755 51.3052 2.88286 51.3111 2.86816Z" fill="#3CB400"/>
<path d="M34.955 30.076C33.7215 30.076 32.9766 29.211 32.9766 27.8573V27.8533C32.9766 26.5196 33.7375 25.6064 34.911 25.6064C36.0844 25.6064 36.7973 26.4795 36.7973 27.7691V28.0415H33.6895C33.7095 28.9346 34.2021 29.4553 34.9711 29.4553C35.5558 29.4553 35.9162 29.1789 36.0324 28.9186L36.0484 28.8825H36.7453L36.7373 28.9146C36.5891 29.4993 35.9723 30.076 34.955 30.076ZM34.907 26.2272C34.2662 26.2272 33.7776 26.6638 33.7015 27.4848H36.0885C36.0164 26.6317 35.5438 26.2272 34.907 26.2272Z" fill="white"/>
<path d="M30.3692 30.076C29.1597 30.076 28.3867 29.1989 28.3867 27.8292V27.8212C28.3867 26.4795 29.1557 25.6064 30.3652 25.6064C31.4145 25.6064 32.0433 26.2112 32.1715 26.9802L32.1755 27.0042H31.4826L31.4786 26.9922C31.3704 26.5676 30.986 26.2232 30.3652 26.2232C29.5882 26.2232 29.0996 26.848 29.0996 27.8212V27.8292C29.0996 28.8225 29.5962 29.4593 30.3652 29.4593C30.9459 29.4593 31.3144 29.2029 31.4746 28.7223L31.4826 28.6983L32.1715 28.6943L32.1634 28.7384C31.9872 29.5193 31.4065 30.076 30.3692 30.076Z" fill="white"/>
<path d="M23.8125 29.9999V25.6825H24.5094V26.3314H24.5735C24.7897 25.8748 25.1942 25.6064 25.831 25.6064C26.8002 25.6064 27.3409 26.1792 27.3409 27.2044V29.9999H26.644V27.3727C26.644 26.5957 26.3236 26.2232 25.6348 26.2232C24.9459 26.2232 24.5094 26.6878 24.5094 27.4447V29.9999H23.8125Z" fill="white"/>
<path d="M20.4731 30.076C19.652 30.076 19.0312 29.5794 19.0312 28.7944V28.7864C19.0312 28.0175 19.6 27.5729 20.6052 27.5128L21.8428 27.4367V27.0442C21.8428 26.5116 21.5184 26.2232 20.8736 26.2232C20.3569 26.2232 20.0165 26.4155 19.9043 26.7519L19.9003 26.7639H19.2035L19.2075 26.7399C19.3196 26.063 19.9764 25.6064 20.8976 25.6064C21.9509 25.6064 22.5396 26.1471 22.5396 27.0442V29.9999H21.8428V29.3631H21.7787C21.5063 29.8237 21.0538 30.076 20.4731 30.076ZM19.7441 28.7784C19.7441 29.215 20.1166 29.4713 20.6172 29.4713C21.3261 29.4713 21.8428 29.0067 21.8428 28.3899V27.9974L20.6893 28.0695C20.0325 28.1096 19.7441 28.3419 19.7441 28.7704V28.7784Z" fill="white"/>
<path d="M17.252 30V23.9685H17.9488V30H17.252Z" fill="white"/>
<path d="M13.8715 30.076C13.0505 30.076 12.4297 29.5794 12.4297 28.7944V28.7864C12.4297 28.0175 12.9984 27.5729 14.0037 27.5128L15.2412 27.4367V27.0442C15.2412 26.5116 14.9168 26.2232 14.272 26.2232C13.7553 26.2232 13.4149 26.4155 13.3028 26.7519L13.2988 26.7639H12.6019L12.6059 26.7399C12.718 26.063 13.3749 25.6064 14.296 25.6064C15.3493 25.6064 15.9381 26.1471 15.9381 27.0442V29.9999H15.2412V29.3631H15.1771C14.9048 29.8237 14.4522 30.076 13.8715 30.076ZM13.1426 28.7784C13.1426 29.215 13.515 29.4713 14.0157 29.4713C14.7246 29.4713 15.2412 29.0067 15.2412 28.3899V27.9974L14.0878 28.0695C13.4309 28.1096 13.1426 28.3419 13.1426 28.7704V28.7784Z" fill="white"/>
<path d="M9.79413 30.0761C9.19338 30.0761 8.71278 29.7918 8.44845 29.3112H8.38437V30H7.6875V23.9685H8.38437V26.3635H8.44845C8.68475 25.9029 9.20139 25.6066 9.79413 25.6066C10.8915 25.6066 11.6044 26.4837 11.6044 27.8373V27.8454C11.6044 29.191 10.8875 30.0761 9.79413 30.0761ZM9.63393 29.4594C10.4229 29.4594 10.8915 28.8506 10.8915 27.8454V27.8373C10.8915 26.8321 10.4229 26.2233 9.63393 26.2233C8.84895 26.2233 8.36835 26.8401 8.36835 27.8373V27.8454C8.36835 28.8426 8.84895 29.4594 9.63393 29.4594Z" fill="white"/>
</svg>
