<svg width="24" height="15" viewBox="0 0 24 15" fill="none" xmlns="http://www.w3.org/2000/svg">
<path d="M15.4061 2.07446H9.03613V13.0087H15.4061V2.07446Z" fill="#FF5A00"/>
<path d="M9.45995 7.54157C9.45995 5.32005 10.553 3.34837 12.2303 2.07443C10.9959 1.14711 9.43875 0.58667 7.74024 0.58667C3.7166 0.58667 0.460938 3.69724 0.460938 7.54157C0.460938 11.3859 3.7166 14.4965 7.74024 14.4965C9.43875 14.4965 10.9959 13.936 12.2303 13.0087C10.5507 11.7528 9.45995 9.76308 9.45995 7.54157Z" fill="#EB001B"/>
<path d="M23.9999 7.54157C23.9999 11.3859 20.7442 14.4965 16.7206 14.4965C15.022 14.4965 13.4649 13.936 12.2305 13.0087C13.929 11.7325 15.0008 9.76308 15.0008 7.54157C15.0008 5.32005 13.9078 3.34837 12.2305 2.07443C13.4625 1.14711 15.0197 0.58667 16.7182 0.58667C20.7442 0.58667 23.9999 3.7175 23.9999 7.54157Z" fill="#F79E1B"/>
</svg>
