<svg width="28" height="28" viewBox="0 0 28 28" fill="none" xmlns="http://www.w3.org/2000/svg">
<g clip-path="url(#clip0_24783_14474)">
<path d="M4.83203 7.33319V12.3332H9.83203" stroke="white" stroke-width="1.66667" stroke-linecap="round" stroke-linejoin="round"/>
<path d="M23.1641 20.667V15.667H18.1641" stroke="white" stroke-width="1.66667" stroke-linecap="round" stroke-linejoin="round"/>
<path d="M21.0737 11.5C20.6511 10.3057 19.9328 9.23788 18.9858 8.39622C18.0389 7.55457 16.8941 6.96651 15.6585 6.68692C14.4228 6.40734 13.1364 6.44533 11.9194 6.79735C10.7023 7.14938 9.59432 7.80397 8.6987 8.70004L4.83203 12.3334M23.1654 15.6667L19.2987 19.3C18.4031 20.1961 17.2951 20.8507 16.078 21.2027C14.861 21.5548 13.5746 21.5927 12.3389 21.3132C11.1033 21.0336 9.95853 20.4455 9.01159 19.6039C8.06464 18.7622 7.34634 17.6944 6.9237 16.5" stroke="white" stroke-width="1.66667" stroke-linecap="round" stroke-linejoin="round"/>
</g>
<defs>
<clipPath id="clip0_24783_14474">
<rect width="20" height="20" fill="white" transform="translate(4 4)"/>
</clipPath>
</defs>
</svg>
