<svg width="24" height="24" viewBox="0 0 24 24" fill="none" xmlns="http://www.w3.org/2000/svg">
<path d="M0.799805 0.540527H23.1998V23.459H0.799805V0.540527Z" fill="white"/>
<path d="M3.81405 14.6376L3.79102 9.96362C3.79102 9.96362 6.28528 10.8521 7.98938 10.8815L8.01696 13.8771C8.01696 13.8771 6.01127 13.8764 3.8682 14.6731" fill="#0B0C0F"/>
<path d="M8.86914 10.8541L10.2429 10.8267L10.2704 13.8772H8.92409L8.86914 10.8541Z" fill="#0B0C0F"/>
<path d="M12.4671 11.4448L11.5801 12.3913L12.5243 13.3487L13.3983 12.358L12.4671 11.4448Z" fill="#0B0C0F"/>
<path d="M11.1211 8.6126L14.0717 8.59888L14.0992 10.0262H11.1623L11.1211 8.6126Z" fill="#0B0C0F"/>
<path d="M14.964 12.7983L12.8643 14.8844L13.8936 15.8862L15.8698 13.8771L14.964 12.7983Z" fill="#0B0C0F"/>
<path d="M10.2679 3.46004L14.9419 3.43701C14.9419 3.43701 14.0122 6.05479 13.9828 7.75889L11.1382 7.77275C11.1382 7.77275 11.0291 5.65726 10.2324 3.51419" fill="#0B0C0F"/>
<path d="M20.2868 16.8508L17.007 20.1809C17.007 20.1809 15.8066 17.6757 14.6191 16.4531L16.6153 14.4265C16.6153 14.4265 18.1922 15.841 20.2735 16.7874" fill="#0B0C0F"/>
</svg>
