<svg width="36" height="19" viewBox="0 0 36 19" fill="none" xmlns="http://www.w3.org/2000/svg">
<g clip-path="url(#clip0_14195_47435)">
<mask id="mask0_14195_47435" style="mask-type:luminance" maskUnits="userSpaceOnUse" x="0" y="0" width="36" height="19">
<path d="M36 0.541748H0V18.5417H36V0.541748Z" fill="white"/>
</mask>
<g mask="url(#mask0_14195_47435)">
<path d="M0.310547 9.54188C0.310547 4.63843 4.28296 0.666016 9.12434 0.666016H26.814C31.7174 0.666016 35.6278 4.63843 35.6278 9.54188C35.6278 14.4453 31.6554 18.3557 26.814 18.3557H9.18641C4.28296 18.4177 0.310547 14.4453 0.310547 9.54188Z" fill="url(#paint0_linear_14195_47435)"/>
<path d="M0.310547 9.54188C0.310547 4.63843 4.28296 0.666016 9.12434 0.666016H26.814C31.7174 0.666016 35.6278 4.63843 35.6278 9.54188C35.6278 14.4453 31.6554 18.3557 26.814 18.3557H9.18641C4.28296 18.4177 0.310547 14.4453 0.310547 9.54188Z" fill="black" fill-opacity="0.04"/>
<path d="M17.9381 10.5349V12.5832H16.7588V6.06592H18.9312C20.9795 6.06592 21.8484 6.81075 21.8484 8.23833C21.8484 9.72799 20.8553 10.5349 18.9312 10.5349H17.9381ZM17.9381 7.12109V9.47971H19.0553C20.1105 9.47971 20.6691 9.1073 20.6691 8.23833C20.6691 7.43143 20.1726 7.12109 19.0553 7.12109H17.9381Z" fill="white"/>
<path d="M22.4695 8.23844C22.7799 7.99016 23.3385 7.80396 24.1454 7.80396C25.5109 7.80396 26.1937 8.23844 26.1937 9.47982V12.5212H25.2005V11.7143C24.9522 12.2729 24.3936 12.6453 23.6488 12.6453C22.7177 12.6453 22.1592 12.0867 22.1592 11.2177C22.1592 10.1626 22.9039 9.85223 24.0833 9.85223H25.1385V9.66602C25.1385 8.98327 24.8281 8.79706 24.2075 8.79706C23.3385 8.79706 22.8419 9.1074 22.5315 9.60395L22.4695 8.23844ZM25.0764 10.9074V10.535H24.1454C23.5247 10.535 23.2144 10.6591 23.2144 11.0936C23.2144 11.466 23.4626 11.6522 23.9591 11.6522C24.7039 11.6522 25.0144 11.2177 25.0764 10.9074Z" fill="white"/>
<path d="M26.6895 7.86597H27.8688L29.1101 11.0315L30.1653 7.86597H31.2826L29.4205 12.9556C28.986 14.0729 28.6136 14.3211 27.9929 14.3211C27.6826 14.3211 27.3722 14.2591 27.2481 14.1349V13.1418C27.3722 13.266 27.6205 13.3901 27.8067 13.3901C28.117 13.3901 28.3653 13.1418 28.5515 12.5211L26.6895 7.86597Z" fill="white"/>
<path d="M7.2627 8.23836V9.66595L9.12476 10.8453L13.6558 7.5556C13.4696 7.18319 13.2834 6.87284 13.0351 6.5625L9.12476 9.41767L7.2627 8.23836Z" fill="white"/>
<path d="M12.9729 9.41774V9.54188C12.9729 10.4108 12.6625 11.2177 12.166 11.9005C11.6694 12.5833 10.9246 13.0177 10.0556 13.266C9.24872 13.4522 8.37975 13.3902 7.57286 13.0177C6.76596 12.6453 6.14527 12.0867 5.77286 11.3419C5.40044 10.597 5.21424 9.72808 5.40044 8.85912C5.52458 7.99015 5.95906 7.24532 6.64182 6.6867C7.26251 6.12808 8.06941 5.75567 8.93838 5.75567C9.80734 5.6936 10.6142 5.94188 11.3591 6.43843L12.3522 5.75567C11.4832 5.07291 10.366 4.63843 9.24872 4.63843C8.13148 4.63843 7.01424 5.01084 6.14527 5.6936C5.27631 6.37636 4.65562 7.36946 4.40734 8.4867C4.15907 9.60394 4.2832 10.7212 4.77976 11.7143C5.27631 12.7074 6.0832 13.5764 7.07631 14.0108C8.06941 14.5074 9.24872 14.6315 10.3039 14.3833C11.4211 14.135 12.3522 13.5143 13.097 12.6453C13.7798 11.7764 14.1522 10.6591 14.1522 9.54188C14.1522 9.23153 14.1522 8.92119 14.0901 8.67291L12.9729 9.41774Z" fill="white"/>
</g>
</g>
<defs>
<linearGradient id="paint0_linear_14195_47435" x1="7.77837" y1="21.1427" x2="28.006" y2="-1.80694" gradientUnits="userSpaceOnUse">
<stop stop-color="#C7E701"/>
<stop offset="0.2424" stop-color="#0ADA01"/>
<stop offset="0.4393" stop-color="#21DE58"/>
<stop offset="0.6317" stop-color="#3EE3A9"/>
<stop offset="0.8075" stop-color="#37DABE"/>
<stop offset="1" stop-color="#15CAE0"/>
</linearGradient>
<clipPath id="clip0_14195_47435">
<rect width="36" height="18" fill="white" transform="translate(0 0.541748)"/>
</clipPath>
</defs>
</svg>
