<svg width="76" height="36" viewBox="0 0 76 36" fill="none" xmlns="http://www.w3.org/2000/svg">
<path d="M32.1328 11.7969H32.1309L22.6934 17.5781V17.7217L32.1191 23.498L25.791 23.5049L32.1172 23.499L19.3809 31.3018V19.6094L10.0039 25.3545L13.3066 19.457L16.2441 17.6543L13.3057 15.8525V19.457L10.0039 25.3545L10 9.94238L19.3809 15.6914V4L32.1328 11.7969ZM22.6943 25.3857L25.7832 23.5059V23.5049L22.6943 21.6104V25.3857ZM22.6934 17.2705V13.7012L25.791 11.8027L25.792 11.8018L22.6777 9.9082L22.6934 17.2705Z" fill="white"/>
<path d="M41.2264 19.4789C41.2264 19.4789 40.4464 19.9285 39.2815 20.0136C37.9422 20.0534 36.7489 19.2075 36.7489 17.7046C36.7489 16.2386 37.8019 15.3984 39.2477 15.3984C40.1343 15.3984 41.3071 16.0129 41.3071 16.0129C41.3071 16.0129 42.1652 14.4381 42.6097 13.6506C41.7957 13.0336 40.7115 12.6953 39.4504 12.6953C36.2678 12.6953 33.8027 14.7704 33.8027 17.686C33.8027 20.6388 36.1196 22.6657 39.4504 22.6045C40.3814 22.5698 41.6658 22.2429 42.4486 21.74L41.2264 19.4789Z" fill="white"/>
<path fill-rule="evenodd" clip-rule="evenodd" d="M49.5631 24.2578C52.5197 24.2578 54.7152 22.445 54.7152 19.6968C54.7152 17.0369 53.0954 15.3098 50.3882 15.3098C49.1388 15.3098 48.1078 15.7496 47.3313 16.5085C47.5167 14.94 48.8431 13.795 50.3034 13.795C50.6404 13.795 53.1777 13.7896 53.1777 13.7896L54.6125 11.0439C54.6125 11.0439 51.427 11.1165 49.9462 11.1165C46.5627 11.1754 44.2773 14.2509 44.2773 17.9861C44.2773 22.3378 46.5063 24.2578 49.5631 24.2578ZM49.5811 17.7418C50.6789 17.7418 51.4399 18.4631 51.4399 19.6965C51.4399 20.8065 50.7637 21.7211 49.5811 21.7236C48.4499 21.7236 47.6889 20.8762 47.6889 19.7154C47.6889 18.4817 48.4499 17.7418 49.5811 17.7418Z" fill="white"/>
<path d="M66.1723 13.0265V22.2758H62.8696V15.7876H59.6895V22.2758H56.3867V13.0259H66.1723V13.0265Z" fill="white"/>
</svg>
