<svg width="16" height="19" viewBox="0 0 16 19" fill="none" xmlns="http://www.w3.org/2000/svg">
<g clip-path="url(#clip0_14195_47420)">
<path d="M0.460938 4.45972L2.74106 8.35597V10.7326L0.463605 14.6212L0.460938 4.45972Z" fill="#5B57A2"/>
<path d="M9.21582 6.93817L11.3524 5.68627L15.725 5.68237L9.21582 9.49447V6.93817Z" fill="#D90751"/>
<path d="M9.20404 4.4368L9.21612 9.5953L6.93066 8.2528V0.541748L9.20404 4.4368Z" fill="#FAB718"/>
<path d="M15.7253 5.6824L11.3525 5.6863L9.20404 4.4368L6.93066 0.541748L15.7253 5.6824Z" fill="#ED6F26"/>
<path d="M9.21612 14.6427V12.14L6.93066 10.823L6.93192 18.5417L9.21612 14.6427Z" fill="#63B22F"/>
<path d="M11.3469 13.4023L2.74091 8.35597L0.460938 4.45972L15.7156 13.3972L11.3469 13.4023Z" fill="#1487C9"/>
<path d="M6.93164 18.5418L9.21553 14.6428L11.3468 13.4023L15.7154 13.3972L6.93164 18.5418Z" fill="#017F36"/>
<path d="M0.463867 14.6211L6.94917 10.8231L4.76884 9.54419L2.74133 10.7325L0.463867 14.6211Z" fill="#984995"/>
</g>
<defs>
<clipPath id="clip0_14195_47420">
<rect width="15" height="18" fill="white" transform="translate(0.460938 0.541748)"/>
</clipPath>
</defs>
</svg>
