<svg width="78" height="18" viewBox="0 0 78 18" fill="none" xmlns="http://www.w3.org/2000/svg">
<path d="M27.4526 9.59584H30.1523C30.5319 9.59584 30.8395 9.88608 30.8395 10.2405C30.8395 10.5979 30.5319 10.8851 30.1523 10.8851H26.8963C26.8439 10.8851 26.7948 10.9034 26.7589 10.934L25.7771 11.7253C25.6266 11.8475 25.7182 12.0766 25.9146 12.0766H29.9887C29.9887 12.0766 29.992 12.0766 29.992 12.0735C29.992 12.0705 29.9952 12.0705 29.9952 12.0705C30.0476 12.0735 30.0967 12.0766 30.149 12.0766C31.2289 12.0766 32.1059 11.2548 32.1059 10.2405C32.1059 9.27811 31.3173 8.48683 30.3094 8.41045C30.3094 8.41045 30.3061 8.41045 30.3061 8.4074C30.3061 8.40434 30.3061 8.40434 30.3028 8.40434H27.397C27.0174 8.40434 26.7098 8.11411 26.7098 7.75971C26.7098 7.40226 27.0174 7.11508 27.397 7.11508H30.6464C30.6988 7.11508 30.7511 7.09675 30.7904 7.06314L31.7034 6.27187C31.8474 6.14661 31.7525 5.92358 31.5594 5.92358H27.4526C27.4362 5.92358 27.4166 5.92358 27.4002 5.92358C26.3204 5.92358 25.4434 6.74541 25.4434 7.75971C25.4434 8.77401 26.3204 9.59584 27.4002 9.59584C27.4166 9.59584 27.433 9.59584 27.4526 9.59584Z" fill="white"/>
<path d="M43.1658 5.92054C43.048 5.92054 42.9531 6.00913 42.9531 6.12217V11.878C42.9531 11.988 43.048 12.0797 43.1658 12.0797H48.1071C48.166 12.0797 48.2216 12.0552 48.2642 12.0155L48.8827 11.3953C49.0103 11.267 48.9154 11.0562 48.7256 11.0562H44.4126C44.2948 11.0562 44.1999 10.9676 44.1999 10.8546V6.11912C44.1999 6.00913 44.105 5.91748 43.9872 5.91748H43.1658V5.92054Z" fill="white"/>
<path fill-rule="evenodd" clip-rule="evenodd" d="M35.2542 5.92041C35.2542 5.92347 35.2542 5.92347 35.2542 5.92041C34.6226 5.94791 34.1154 6.42145 34.0859 7.01109V10.8819C34.0859 10.8972 34.0859 10.9155 34.0859 10.9308C34.0859 11.5449 34.603 12.0459 35.2542 12.0704H39.7373C40.3853 12.0429 40.9056 11.5418 40.9056 10.9308C40.9056 10.9155 40.9056 10.8972 40.9056 10.8819V7.01414C40.8794 6.42451 40.3722 5.94791 39.7406 5.92347H35.2542V5.92041ZM36.0919 7.01414C36.0886 7.01414 36.0886 7.01414 36.0919 7.01414C35.6959 7.02942 35.3785 7.32882 35.3622 7.70155V10.1365C35.3622 10.1456 35.3622 10.1579 35.3622 10.167C35.3622 10.552 35.6861 10.8697 36.0919 10.885H38.9029C39.3086 10.8697 39.6326 10.552 39.6326 10.167C39.6326 10.1579 39.6326 10.1456 39.6326 10.1365V7.70155C39.6162 7.32882 39.2988 7.03247 38.9029 7.01414H36.0919Z" fill="white"/>
<path fill-rule="evenodd" clip-rule="evenodd" d="M56.0664 11.8779C56.0664 11.9879 56.1613 12.0795 56.2791 12.0795H57.1168C57.2346 12.0795 57.3295 11.9909 57.3295 11.8779V7.11496C57.3295 7.09968 57.3295 7.08135 57.3295 7.06607C57.3295 6.452 56.8157 5.95095 56.1744 5.92651H51.8712C51.8548 5.92651 51.8352 5.92651 51.8188 5.92651C51.1513 5.92651 50.6113 6.43672 50.6113 7.06913C50.6113 7.0844 50.6113 7.10274 50.6113 7.11801V11.8809C50.6113 11.9909 50.7062 12.0826 50.824 12.0826H51.6618C51.7796 12.0826 51.8745 11.994 51.8745 11.8809V9.89817C51.8745 9.78819 51.9694 9.69653 52.0872 9.69653H55.8635C55.9813 9.69653 56.0762 9.78513 56.0762 9.89817V11.8779H56.0664ZM51.8679 8.59974V7.60989C51.8679 7.22494 52.1984 6.91332 52.6042 6.91332H55.3334C55.7391 6.91332 56.0696 7.22494 56.0696 7.60989V8.59974C56.0696 8.70973 55.9747 8.80138 55.8569 8.80138H52.0806C51.9628 8.80138 51.8679 8.71278 51.8679 8.59974Z" fill="white"/>
<path fill-rule="evenodd" clip-rule="evenodd" d="M73.752 12.0797C73.6342 12.0797 73.5393 11.9911 73.5393 11.878V9.89524C73.5393 9.78526 73.4444 9.6936 73.3266 9.6936H69.5078C69.39 9.6936 69.2951 9.7822 69.2951 9.89524V11.878C69.2951 11.988 69.2002 12.0797 69.0824 12.0797H68.2381C68.1203 12.0797 68.0254 11.9911 68.0254 11.878V7.11508C68.0254 7.09981 68.0254 7.08148 68.0254 7.0662C68.0254 6.43684 68.5719 5.92358 69.246 5.92358C69.2623 5.92358 69.282 5.92358 69.2983 5.92358H73.6473C74.2953 5.95108 74.8156 6.45212 74.8156 7.06314C74.8156 7.07842 74.8156 7.09675 74.8156 7.11203V11.875C74.8156 11.9849 74.7207 12.0766 74.6029 12.0766H73.752V12.0797ZM69.2951 7.61001V8.59987C69.2951 8.70985 69.39 8.80151 69.5078 8.80151H73.3266C73.4444 8.80151 73.5393 8.71291 73.5393 8.59987V7.61001C73.5393 7.22507 73.2056 6.91344 72.7965 6.91344H70.0379C69.6256 6.91344 69.2951 7.22507 69.2951 7.61001Z" fill="white"/>
<path d="M60.4834 5.92041C60.5456 5.92041 60.6045 5.94485 60.6437 5.99068L64.4004 10.1731C64.528 10.3137 64.7735 10.2281 64.7735 10.0418V6.12205C64.7735 6.01206 64.8684 5.92041 64.9862 5.92041H65.8239C65.9417 5.92041 66.0366 6.00901 66.0366 6.12205V11.8779C66.0366 11.9879 65.9417 12.0795 65.8239 12.0795H64.7833C64.78 12.0795 64.7767 12.0765 64.7767 12.0734C64.7767 12.0704 64.7767 12.0704 64.7735 12.0673L60.9513 7.9154C60.8237 7.77487 60.5783 7.86347 60.5783 8.04677V11.881C60.5783 11.9909 60.4834 12.0826 60.3656 12.0826H59.5213C59.4035 12.0826 59.3086 11.994 59.3086 11.881V6.12205C59.3086 6.01206 59.4035 5.92041 59.5213 5.92041H60.4834Z" fill="white"/>
<path d="M5.96167 12.2905C6.06638 12.1927 6.20709 12.1377 6.35435 12.1377H19.9838C20.2325 12.1377 20.3568 12.4188 20.1801 12.5807L17.487 15.0951C17.3822 15.1928 17.2415 15.2478 17.0943 15.2478H3.46485C3.21615 15.2478 3.0918 14.9667 3.26851 14.8048L5.96167 12.2905Z" fill="white"/>
<path d="M5.96167 2.90495C6.06638 2.80719 6.20709 2.7522 6.35435 2.7522H19.9838C20.2325 2.7522 20.3568 3.03327 20.1801 3.19519L17.487 5.7065C17.3822 5.80426 17.2415 5.85926 17.0943 5.85926H3.46485C3.21615 5.85926 3.0918 5.57818 3.26851 5.41626L5.96167 2.90495Z" fill="white"/>
<path d="M17.487 7.56706C17.3822 7.4693 17.2415 7.41431 17.0943 7.41431H3.46485C3.21615 7.41431 3.0918 7.69538 3.26851 7.8573L5.96167 10.3686C6.06638 10.4664 6.20709 10.5214 6.35435 10.5214H19.9838C20.2325 10.5214 20.3568 10.2403 20.1801 10.0784L17.487 7.56706Z" fill="white"/>
</svg>
