<svg width="25" height="24" viewBox="0 0 25 24" fill="none" xmlns="http://www.w3.org/2000/svg">
<path d="M20.542 6C22.3136 6.00018 23.7498 7.43635 23.75 9.20801C23.75 10.9798 22.3138 12.4168 20.542 12.417C20.1649 12.417 19.8029 12.351 19.4668 12.2314L16.3828 14.3301C16.4033 14.4532 16.417 14.5791 16.417 14.708C16.417 15.9737 15.3907 17 14.125 17C13.0072 17 12.0772 16.1995 11.875 15.1406L5.38281 11.9805C5.00559 12.2536 4.5433 12.4169 4.04199 12.417C2.77634 12.417 1.75 11.3907 1.75 10.125C1.75 8.85935 2.77634 7.83301 4.04199 7.83301C5.3075 7.83318 6.33301 8.85946 6.33301 10.125C6.33301 10.2389 6.32172 10.3505 6.30566 10.46L12.7061 12.9102C13.0964 12.6017 13.5888 12.417 14.125 12.417C14.3277 12.417 14.5238 12.4447 14.7109 12.4941L17.4258 9.97266C17.3659 9.72765 17.333 9.47147 17.333 9.20801C17.3332 7.43624 18.7702 6 20.542 6Z" fill="#162312"/>
</svg>
