<svg width="26" height="18" viewBox="0 0 26 18" fill="none" xmlns="http://www.w3.org/2000/svg">
<path d="M19.792 6C21.5636 6.00018 22.9998 7.43635 23 9.20801C23 10.9798 21.5638 12.4168 19.792 12.417C19.4149 12.417 19.0529 12.351 18.7168 12.2314L15.6328 14.3301C15.6533 14.4532 15.667 14.5791 15.667 14.708C15.667 15.9737 14.6407 17 13.375 17C12.2572 17 11.3272 16.1995 11.125 15.1406L4.63281 11.9805C4.25559 12.2536 3.7933 12.4169 3.29199 12.417C2.02634 12.417 1 11.3907 1 10.125C1 8.85935 2.02634 7.83301 3.29199 7.83301C4.5575 7.83318 5.58301 8.85946 5.58301 10.125C5.58301 10.2389 5.57172 10.3505 5.55566 10.46L11.9561 12.9102C12.3464 12.6017 12.8388 12.417 13.375 12.417C13.5777 12.417 13.7738 12.4447 13.9609 12.4941L16.6758 9.97266C16.6159 9.72765 16.583 9.47147 16.583 9.20801C16.5832 7.43624 18.0202 6 19.792 6Z" fill="white"/>
</svg>
