<svg width="70" height="28" viewBox="0 0 70 28" fill="none" xmlns="http://www.w3.org/2000/svg">
<g clip-path="url(#clip0_25123_1107)">
<mask id="mask0_25123_1107" style="mask-type:luminance" maskUnits="userSpaceOnUse" x="0" y="0" width="70" height="28">
<path d="M69.5 0.857178H0.5V27.1429H69.5V0.857178Z" fill="white"/>
</mask>
<g mask="url(#mask0_25123_1107)">
<path d="M13.721 27.1429C20.9796 27.1429 26.8638 21.2586 26.8638 14C26.8638 6.74142 20.9796 0.857178 13.721 0.857178C6.46237 0.857178 0.578125 6.74142 0.578125 14C0.578125 21.2586 6.46237 27.1429 13.721 27.1429Z" fill="white"/>
<path d="M18.2088 8.19263H9.23331C7.58304 8.19263 6.5371 9.97278 7.36731 11.4119L12.9066 21.0131C13.2681 21.64 14.174 21.64 14.5355 21.0131L20.0759 11.4119C20.9051 9.97508 19.8591 8.19263 18.2099 8.19263H18.2088ZM12.9021 18.1338L11.6958 15.7991L8.78491 10.5929C8.59288 10.2597 8.83006 9.83271 9.23219 9.83271H12.901V18.135L12.9021 18.1338ZM18.655 10.5918L15.7452 15.8002L14.5389 18.1338V9.83159H18.2077C18.6098 9.83159 18.847 10.2586 18.655 10.5918Z" fill="#111A2C"/>
<path d="M35.1486 21.2601H38.0923V10.994H42.1626V8.19751H31.0781V10.994H35.1486V21.2601Z" fill="white"/>
<path d="M49.2366 21.481C52.9527 21.481 55.9887 18.4453 55.9887 14.7289C55.9887 11.0125 52.9527 7.97681 49.2366 7.97681C45.5016 7.97681 42.4844 11.0125 42.4844 14.7289C42.4844 18.4453 45.5016 21.481 49.2366 21.481ZM49.2366 18.6477C47.1023 18.6477 45.428 16.8447 45.428 14.7289C45.428 12.6131 47.1023 10.8101 49.2366 10.8101C51.3521 10.8101 53.0264 12.6131 53.0264 14.7289C53.0264 16.8447 51.3521 18.6477 49.2366 18.6477Z" fill="white"/>
<path d="M69.423 21.2601V8.19751H66.479V16.2559L60.1319 8.19751H57.6113V21.2601H60.5366V13.1834L66.9024 21.2601H69.423Z" fill="white"/>
</g>
</g>
<defs>
<clipPath id="clip0_25123_1107">
<rect width="69" height="26.2857" fill="white" transform="translate(0.5 0.857178)"/>
</clipPath>
</defs>
</svg>
