<svg width="23" height="18" viewBox="0 0 23 18" fill="none" xmlns="http://www.w3.org/2000/svg">
<g clip-path="url(#clip0_14195_47447)">
<path d="M15.0148 0.572998C10.611 0.572998 7.07227 4.15894 7.07227 8.54175C7.07227 12.9607 10.6458 16.5105 15.0137 16.5105C19.3816 16.5105 22.9584 12.9246 22.9584 8.54175C22.9584 4.15894 19.3827 0.572998 15.0148 0.572998ZM15.0148 11.512C13.3903 11.512 12.055 10.1716 12.055 8.54175C12.055 6.91187 13.3903 5.57153 15.0148 5.57153C16.6393 5.57153 17.9751 6.91187 17.9751 8.54175C17.9387 10.1716 16.6393 11.512 15.0148 11.512Z" fill="#8B3FFD"/>
<path d="M7.07255 2.88818V14.479H4.25844L0.648438 2.88818H7.07255Z" fill="#8B3FFD"/>
</g>
<defs>
<clipPath id="clip0_14195_47447">
<rect width="23" height="17" fill="white" transform="translate(0 0.041748)"/>
</clipPath>
</defs>
</svg>
