<svg width="78" height="46" viewBox="0 0 78 46" fill="none" xmlns="http://www.w3.org/2000/svg">
<path fill-rule="evenodd" clip-rule="evenodd" d="M8.53371 10H25.8134C26.2257 10 26.6066 10.2206 26.8121 10.5784L31.8464 19.3392C32.1075 19.7935 32.03 20.367 31.6575 20.7354L17.8005 34.445C17.3516 34.8892 16.6296 34.8892 16.1807 34.445L2.34244 20.7539C1.9614 20.3769 1.89005 19.7868 2.17025 19.3296L7.55151 10.5503C7.76111 10.2084 8.13301 10 8.53371 10ZM23.5823 13.9114V16.3696H18.6599V18.0739C22.1171 18.256 24.7107 19.004 24.7299 19.9006V21.7698C24.7106 22.6664 22.1171 23.4145 18.6599 23.5966V27.7792H15.3915V23.5966C11.9343 23.4145 9.34061 22.6664 9.32141 21.7698L9.32151 19.9006C9.34071 19.004 11.9343 18.256 15.3915 18.0739V16.3696H10.4691V13.9114H23.5823ZM17.0256 22.3124C20.715 22.3124 23.7987 21.6799 24.5532 20.8352C23.9133 20.1189 21.5985 19.5552 18.6599 19.4003V21.1848C18.1332 21.2125 17.5865 21.2271 17.0256 21.2271C16.4649 21.2271 15.9182 21.2125 15.3915 21.1848V19.4003C12.4528 19.5552 10.138 20.1189 9.49811 20.8352C10.2527 21.6799 13.3364 22.3124 17.0256 22.3124Z" fill="white"/>
<path d="M45.2753 12.113V17.656C45.2753 18.2458 45.1445 18.7791 44.8828 19.2556C44.6249 19.7283 44.2324 20.1033 43.705 20.3806C43.1816 20.658 42.5214 20.7966 41.7246 20.7966C40.5917 20.7966 39.7285 20.5076 39.1347 19.9294C38.541 19.3513 38.2441 18.5857 38.2441 17.6326V12.113H40.0546V17.3572C40.0546 18.0642 40.1992 18.5603 40.4882 18.8455C40.7773 19.1306 41.205 19.2732 41.7714 19.2732C42.1699 19.2732 42.4921 19.2048 42.7382 19.0681C42.9882 18.9314 43.1718 18.7205 43.289 18.4353C43.4062 18.1501 43.4648 17.7869 43.4648 17.3455V12.113H45.2753Z" fill="white"/>
<path d="M52.4277 18.4235C52.4277 18.9313 52.3048 19.3728 52.0587 19.7478C51.8126 20.1228 51.4531 20.4118 50.9805 20.6149C50.5117 20.8181 49.9415 20.9196 49.2696 20.9196C48.9728 20.9196 48.6816 20.9001 48.3965 20.861C48.1152 20.822 47.8438 20.7653 47.5821 20.6911C47.3243 20.613 47.0782 20.5173 46.8438 20.404V18.7165C47.2501 18.8962 47.672 19.0583 48.1095 19.2028C48.547 19.3474 48.9806 19.4196 49.4103 19.4196C49.7071 19.4196 49.9453 19.3806 50.125 19.3024C50.3086 19.2243 50.4414 19.1169 50.5234 18.9802C50.6055 18.8435 50.6465 18.6872 50.6465 18.5114C50.6465 18.2966 50.5743 18.113 50.4298 17.9606C50.2853 17.8083 50.086 17.6657 49.8321 17.5329C49.5821 17.4001 49.2988 17.2575 48.9824 17.1052C48.7832 17.0114 48.5665 16.8981 48.3321 16.7653C48.0978 16.6286 47.8751 16.4626 47.6642 16.2673C47.4532 16.072 47.2794 15.8356 47.1427 15.5583C47.0099 15.2771 46.9435 14.9411 46.9435 14.5505C46.9435 14.0388 47.0605 13.6013 47.2949 13.238C47.5293 12.8747 47.8634 12.5974 48.297 12.406C48.7345 12.2106 49.2501 12.113 49.8438 12.113C50.2891 12.113 50.7129 12.1657 51.1152 12.2712C51.5215 12.3728 51.9453 12.5212 52.3867 12.7165L51.8008 14.1286C51.4062 13.9685 51.0527 13.8454 50.7402 13.7595C50.4277 13.6696 50.1095 13.6247 49.7853 13.6247C49.5587 13.6247 49.3653 13.6618 49.2052 13.736C49.045 13.8063 48.9239 13.9079 48.8419 14.0407C48.7599 14.1696 48.7188 14.32 48.7188 14.4919C48.7188 14.695 48.7774 14.8669 48.8946 15.0075C49.0157 15.1442 49.1954 15.2771 49.4337 15.406C49.6759 15.5349 49.9766 15.6853 50.3359 15.8571C50.7734 16.0642 51.1466 16.281 51.4552 16.5075C51.7677 16.7302 52.0078 16.9938 52.1758 17.2985C52.3438 17.5993 52.4277 17.9743 52.4277 18.4235Z" fill="white"/>
<path d="M61.0898 16.3142C61.0898 17.2791 60.9042 18.0857 60.5331 18.7341C60.166 19.3787 59.6328 19.865 58.9335 20.1931C58.2343 20.5173 57.3925 20.6794 56.4081 20.6794H53.9824V12.113H56.6718C57.5703 12.113 58.3496 12.2732 59.0097 12.5935C59.6699 12.9099 60.1816 13.3806 60.5449 14.0056C60.9081 14.6267 61.0898 15.3962 61.0898 16.3142ZM59.2031 16.3611C59.2031 15.7283 59.1093 15.2087 58.9218 14.8025C58.7382 14.3923 58.4648 14.0896 58.1015 13.8943C57.7421 13.699 57.2968 13.6013 56.7656 13.6013H55.7988V19.1794H56.5781C57.4648 19.1794 58.123 18.9431 58.5527 18.4705C58.9863 17.9978 59.2031 17.2947 59.2031 16.3611Z" fill="white"/>
<path d="M66.1328 13.6247C65.7852 13.6247 65.4766 13.6931 65.2071 13.8298C64.9414 13.9626 64.7168 14.156 64.5332 14.4099C64.3535 14.6638 64.2168 14.9704 64.1231 15.3298C64.0293 15.6892 63.9825 16.0935 63.9825 16.5427C63.9825 17.1481 64.0567 17.6657 64.2051 18.0954C64.3575 18.5212 64.5918 18.8474 64.9082 19.0739C65.2246 19.2966 65.6328 19.4079 66.1328 19.4079C66.4805 19.4079 66.8282 19.3688 67.1758 19.2907C67.5274 19.2126 67.9082 19.1013 68.3184 18.9567V20.4802C67.9395 20.6364 67.5664 20.7478 67.1992 20.8142C66.8321 20.8845 66.42 20.9196 65.9629 20.9196C65.0801 20.9196 64.3535 20.738 63.7832 20.3747C63.2168 20.0075 62.7969 19.4958 62.5235 18.8396C62.25 18.1794 62.1133 17.4099 62.1133 16.531C62.1133 15.8825 62.2012 15.2888 62.377 14.7497C62.5528 14.2106 62.8106 13.7438 63.1504 13.3493C63.4903 12.9548 63.9102 12.6501 64.4102 12.4353C64.9102 12.2204 65.4844 12.113 66.1328 12.113C66.5586 12.113 66.9844 12.1677 67.4102 12.2771C67.8399 12.3825 68.25 12.529 68.6407 12.7165L68.0547 14.1931C67.7344 14.0407 67.4121 13.9079 67.0879 13.7946C66.7637 13.6813 66.4453 13.6247 66.1328 13.6247Z" fill="white"/>
<path d="M41.6074 33.3892H39.791V26.3346H37.4648V24.8228H43.9335V26.3346H41.6074V33.3892Z" fill="white"/>
<path d="M47.7481 24.8228C48.5254 24.8228 49.1661 24.9166 49.67 25.1041C50.1778 25.2916 50.5547 25.5748 50.8008 25.9537C51.0469 26.3326 51.17 26.8111 51.17 27.3892C51.17 27.7799 51.0957 28.1217 50.9473 28.4146C50.7989 28.7076 50.6036 28.9556 50.3614 29.1588C50.1192 29.3619 49.8575 29.5279 49.5762 29.6568L52.0957 33.3892H50.0801L48.0352 30.1021H47.0684V33.3892H45.252V24.8228H47.7481ZM47.6192 26.3111H47.0684V28.6256H47.6543C48.2559 28.6256 48.6856 28.526 48.9434 28.3267C49.2051 28.1236 49.336 27.8267 49.336 27.4361C49.336 27.0299 49.1954 26.7408 48.9141 26.5689C48.6368 26.3971 48.2051 26.3111 47.6192 26.3111Z" fill="white"/>
<path d="M56.8105 26.2114C56.4629 26.2114 56.1543 26.2798 55.8848 26.4165C55.6191 26.5493 55.3945 26.7427 55.2109 26.9966C55.0312 27.2505 54.8945 27.5571 54.8008 27.9165C54.707 28.2759 54.6602 28.6802 54.6602 29.1294C54.6602 29.7348 54.7344 30.2524 54.8828 30.6821C55.0352 31.1079 55.2695 31.4341 55.5859 31.6606C55.9023 31.8833 56.3105 31.9946 56.8105 31.9946C57.1582 31.9946 57.5059 31.9555 57.8535 31.8774C58.2051 31.7993 58.5859 31.688 58.9961 31.5434V33.0669C58.6172 33.2231 58.2441 33.3345 57.8769 33.4009C57.5098 33.4712 57.0977 33.5063 56.6406 33.5063C55.7578 33.5063 55.0312 33.3247 54.4609 32.9614C53.8945 32.5942 53.4746 32.0825 53.2012 31.4263C52.9277 30.7661 52.791 29.9966 52.791 29.1177C52.791 28.4692 52.8789 27.8755 53.0547 27.3364C53.2305 26.7973 53.4883 26.3305 53.8281 25.936C54.168 25.5415 54.5879 25.2368 55.0879 25.022C55.5879 24.8071 56.1621 24.6997 56.8105 24.6997C57.2363 24.6997 57.6621 24.7544 58.0879 24.8638C58.5176 24.9692 58.9277 25.1157 59.3184 25.3032L58.7324 26.7798C58.4121 26.6274 58.0898 26.4946 57.7656 26.3813C57.4414 26.268 57.123 26.2114 56.8105 26.2114Z" fill="white"/>
<path d="M60.1035 30.9048V29.4399H63.25V30.9048H60.1035Z" fill="white"/>
<path d="M70.082 33.3891H64.0937V32.1294L66.2441 29.9555C66.6777 29.5102 67.0254 29.1391 67.2871 28.8423C67.5527 28.5415 67.7441 28.268 67.8613 28.022C67.9824 27.7759 68.043 27.5122 68.043 27.2309C68.043 26.8911 67.9473 26.6372 67.7559 26.4692C67.5684 26.2973 67.3164 26.2114 67 26.2114C66.668 26.2114 66.3457 26.2876 66.0332 26.4399C65.7207 26.5923 65.3945 26.8091 65.0547 27.0903L64.0703 25.9243C64.3164 25.7134 64.5762 25.5141 64.8496 25.3266C65.1269 25.1391 65.4473 24.9888 65.8105 24.8755C66.1777 24.7583 66.6172 24.6997 67.1289 24.6997C67.6914 24.6997 68.1738 24.8013 68.5762 25.0044C68.9824 25.2075 69.2949 25.4848 69.5137 25.8364C69.7324 26.1841 69.8418 26.5786 69.8418 27.02C69.8418 27.4927 69.748 27.9243 69.5605 28.3149C69.373 28.7055 69.0996 29.0923 68.7402 29.4751C68.3848 29.8579 67.9551 30.2817 67.4512 30.7466L66.3496 31.7837V31.8657H70.082V33.3891Z" fill="white"/>
<path d="M76.9042 29.1059C76.9042 29.7973 76.8496 30.4145 76.7402 30.9575C76.6347 31.5005 76.4628 31.9614 76.2246 32.3403C75.9902 32.7192 75.6816 33.0083 75.2988 33.2075C74.916 33.4067 74.4511 33.5063 73.9042 33.5063C73.2167 33.5063 72.6523 33.3325 72.2109 32.9848C71.7695 32.6333 71.4433 32.1294 71.2324 31.4731C71.0214 30.813 70.916 30.0239 70.916 29.1059C70.916 28.1802 71.0117 27.3891 71.2031 26.7329C71.3984 26.0727 71.7148 25.5669 72.1523 25.2153C72.5898 24.8638 73.1738 24.688 73.9042 24.688C74.5878 24.688 75.1503 24.8638 75.5917 25.2153C76.0371 25.563 76.3671 26.0669 76.582 26.727C76.7968 27.3833 76.9042 28.1763 76.9042 29.1059ZM72.7148 29.1059C72.7148 29.7583 72.7499 30.3032 72.8203 30.7407C72.8945 31.1743 73.0175 31.5005 73.1894 31.7192C73.3613 31.938 73.5996 32.0473 73.9042 32.0473C74.205 32.0473 74.4413 31.9399 74.6132 31.7251C74.789 31.5063 74.914 31.1802 74.9882 30.7466C75.0624 30.3091 75.0996 29.7622 75.0996 29.1059C75.0996 28.4536 75.0624 27.9087 74.9882 27.4712C74.914 27.0337 74.789 26.7055 74.6132 26.4868C74.4413 26.2641 74.205 26.1528 73.9042 26.1528C73.5996 26.1528 73.3613 26.2641 73.1894 26.4868C73.0175 26.7055 72.8945 27.0337 72.8203 27.4712C72.7499 27.9087 72.7148 28.4536 72.7148 29.1059Z" fill="white"/>
<path d="M31.9919 29.4882C31.9919 33.6275 28.6363 36.9831 24.4969 36.9831C20.3576 36.9831 17.002 33.6275 17.002 29.4882C17.002 25.3488 20.3576 21.9932 24.4969 21.9932C28.6363 21.9932 31.9919 25.3488 31.9919 29.4882Z" fill="#49AA19"/>
<path d="M29.6054 28.6541C29.1413 28.2256 28.4994 27.5713 27.9765 27.1072L27.9456 27.0856C27.8941 27.0443 27.8361 27.0118 27.7739 26.9897C26.5132 26.7546 20.646 25.6578 20.5315 25.6718C20.4994 25.6763 20.4688 25.6879 20.4418 25.7058L20.4124 25.729C20.3762 25.7658 20.3487 25.8102 20.332 25.8589L20.3242 25.879V26.0059C20.9848 27.8451 23.5927 33.8701 24.1063 35.2839C24.1372 35.3798 24.196 35.5624 24.3058 35.5716H24.3306C24.3894 35.5716 24.64 35.2406 24.64 35.2406C24.64 35.2406 29.1197 29.8081 29.5729 29.2295C29.6316 29.1583 29.6833 29.0816 29.7276 29.0006C29.7389 28.9372 29.7335 28.872 29.7121 28.8112C29.6907 28.7505 29.6539 28.6964 29.6054 28.6541ZM25.7893 29.2868L27.7012 27.7012L28.8227 28.7345L25.7893 29.2868ZM25.0468 29.1831L21.7551 26.4854L27.0809 27.4677L25.0468 29.1831ZM25.3438 29.89L28.7128 29.3471L24.8612 33.9877L25.3438 29.89ZM21.308 26.7546L24.7714 29.6936L24.2703 33.9907L21.308 26.7546Z" fill="white"/>
</svg>
