<svg width="78" height="46" viewBox="0 0 78 46" fill="none" xmlns="http://www.w3.org/2000/svg">
<path fill-rule="evenodd" clip-rule="evenodd" d="M7.6938 11.387H24.9736C25.3859 11.387 25.7668 11.6075 25.9723 11.9654L31.0066 20.7262C31.2677 21.1805 31.1902 21.754 30.8177 22.1224L16.9607 35.832C16.5118 36.2762 15.7898 36.2762 15.3409 35.832L1.50259 22.1409C1.12155 21.7639 1.0502 21.1738 1.3304 20.7166L6.7117 11.9373C6.9212 11.5953 7.2931 11.387 7.6938 11.387ZM22.7425 15.2984V17.7566H17.8201V19.4609C21.2773 19.643 23.8709 20.391 23.8901 21.2876V23.1568C23.8708 24.0534 21.2773 24.8015 17.8201 24.9836V29.1662H14.5516V24.9836C11.0945 24.8015 8.5008 24.0534 8.4816 23.1568V21.2876C8.5009 20.391 11.0945 19.643 14.5516 19.4609V17.7566H9.6293V15.2984H22.7425ZM16.1858 23.6994C19.8752 23.6994 22.9589 23.0669 23.7134 22.2222C23.0735 21.5059 20.7587 20.9422 17.8201 20.7873V22.5718C17.2934 22.5995 16.7467 22.6141 16.1858 22.6141C15.6251 22.6141 15.0783 22.5995 14.5516 22.5718V20.7873C11.6129 20.9422 9.2982 21.5059 8.6582 22.2222C9.4129 23.0669 12.4965 23.6994 16.1858 23.6994Z" fill="white"/>
<path d="M44.4336 13.2097V18.7527C44.4336 19.3425 44.3027 19.8758 44.041 20.3523C43.7832 20.825 43.3906 21.2 42.8633 21.4773C42.3398 21.7547 41.6797 21.8933 40.8828 21.8933C39.75 21.8933 38.8867 21.6043 38.293 21.0261C37.6992 20.448 37.4023 19.6824 37.4023 18.7293V13.2097H39.2129V18.4539C39.2129 19.1609 39.3574 19.657 39.6465 19.9422C39.9355 20.2273 40.3633 20.3699 40.9297 20.3699C41.3281 20.3699 41.6504 20.3015 41.8965 20.1648C42.1465 20.0281 42.3301 19.8172 42.4473 19.532C42.5645 19.2468 42.623 18.8836 42.623 18.4422V13.2097H44.4336Z" fill="white"/>
<path d="M51.5879 19.3972C51.5879 19.905 51.4648 20.3465 51.2188 20.7215C50.9727 21.0965 50.6133 21.3855 50.1406 21.5886C49.6719 21.7918 49.1016 21.8933 48.4297 21.8933C48.1328 21.8933 47.8418 21.8738 47.5566 21.8347C47.2754 21.7957 47.0039 21.739 46.7422 21.6648C46.4844 21.5867 46.2383 21.491 46.0039 21.3777V19.6902C46.4102 19.8699 46.832 20.032 47.2695 20.1765C47.707 20.3211 48.1406 20.3933 48.5703 20.3933C48.8672 20.3933 49.1055 20.3543 49.2852 20.2761C49.4688 20.198 49.6016 20.0906 49.6836 19.9539C49.7656 19.8172 49.8066 19.6609 49.8066 19.4851C49.8066 19.2703 49.7344 19.0867 49.5898 18.9343C49.4453 18.782 49.2461 18.6394 48.9922 18.5066C48.7422 18.3738 48.459 18.2312 48.1426 18.0789C47.9434 17.9851 47.7266 17.8718 47.4922 17.739C47.2578 17.6023 47.0352 17.4363 46.8242 17.241C46.6133 17.0457 46.4395 16.8093 46.3027 16.532C46.1699 16.2508 46.1035 15.9148 46.1035 15.5242C46.1035 15.0125 46.2207 14.575 46.4551 14.2117C46.6895 13.8484 47.0234 13.5711 47.457 13.3797C47.8945 13.1843 48.4102 13.0867 49.0039 13.0867C49.4492 13.0867 49.873 13.1394 50.2754 13.2449C50.6816 13.3465 51.1055 13.4949 51.5469 13.6902L50.9609 15.1023C50.5664 14.9422 50.2129 14.8191 49.9004 14.7332C49.5879 14.6433 49.2695 14.5984 48.9453 14.5984C48.7188 14.5984 48.5254 14.6355 48.3652 14.7097C48.2051 14.78 48.084 14.8816 48.002 15.0144C47.9199 15.1433 47.8789 15.2937 47.8789 15.4656C47.8789 15.6687 47.9375 15.8406 48.0547 15.9812C48.1758 16.1179 48.3555 16.2508 48.5938 16.3797C48.8359 16.5086 49.1367 16.659 49.4961 16.8308C49.9336 17.0379 50.3066 17.2547 50.6152 17.4812C50.9277 17.7039 51.168 17.9675 51.3359 18.2722C51.5039 18.573 51.5879 18.948 51.5879 19.3972Z" fill="white"/>
<path d="M60.248 17.4109C60.248 18.3758 60.0625 19.1824 59.6914 19.8308C59.3242 20.4754 58.791 20.9617 58.0918 21.2898C57.3926 21.614 56.5508 21.7761 55.5664 21.7761H53.1406V13.2097H55.8301C56.7285 13.2097 57.5078 13.3699 58.168 13.6902C58.8281 14.0066 59.3398 14.4773 59.7031 15.1023C60.0664 15.7234 60.248 16.4929 60.248 17.4109ZM58.3613 17.4578C58.3613 16.825 58.2676 16.3054 58.0801 15.8992C57.8965 15.489 57.623 15.1863 57.2598 14.991C56.9004 14.7957 56.4551 14.698 55.9238 14.698H54.957V20.2761H55.7363C56.623 20.2761 57.2812 20.0398 57.7109 19.5672C58.1445 19.0945 58.3613 18.3914 58.3613 17.4578Z" fill="white"/>
<path d="M65.3281 21.7761H63.5117V14.7215H61.1855V13.2097H67.6543V14.7215H65.3281V21.7761Z" fill="white"/>
<path d="M42.3945 34.7759H37.4609V26.2095H42.3945V27.6978H39.2773V29.5787H42.1777V31.067H39.2773V33.2759H42.3945V34.7759Z" fill="white"/>
<path d="M46.6836 26.2095C47.4609 26.2095 48.1016 26.3033 48.6055 26.4908C49.1133 26.6783 49.4902 26.9615 49.7363 27.3404C49.9824 27.7193 50.1055 28.1978 50.1055 28.7759C50.1055 29.1666 50.0312 29.5084 49.8828 29.8013C49.7344 30.0943 49.5391 30.3423 49.2969 30.5455C49.0547 30.7486 48.793 30.9146 48.5117 31.0435L51.0312 34.7759H49.0156L46.9707 31.4888H46.0039V34.7759H44.1875V26.2095H46.6836ZM46.5547 27.6978H46.0039V30.0123H46.5898C47.1914 30.0123 47.6211 29.9127 47.8789 29.7134C48.1406 29.5103 48.2715 29.2134 48.2715 28.8228C48.2715 28.4166 48.1309 28.1275 47.8496 27.9556C47.5723 27.7838 47.1406 27.6978 46.5547 27.6978Z" fill="white"/>
<path d="M55.748 27.5981C55.4004 27.5981 55.0918 27.6665 54.8223 27.8032C54.5566 27.936 54.332 28.1294 54.1484 28.3833C53.9688 28.6372 53.832 28.9438 53.7383 29.3032C53.6445 29.6626 53.5977 30.0669 53.5977 30.5161C53.5977 31.1215 53.6719 31.6391 53.8203 32.0688C53.9727 32.4946 54.207 32.8208 54.5234 33.0473C54.8398 33.27 55.248 33.3813 55.748 33.3813C56.0957 33.3813 56.4434 33.3422 56.791 33.2641C57.1426 33.186 57.5234 33.0747 57.9336 32.9301V34.4536C57.5547 34.6098 57.1816 34.7212 56.8145 34.7876C56.4473 34.8579 56.0352 34.893 55.5781 34.893C54.6953 34.893 53.9688 34.7114 53.3984 34.3481C52.832 33.9809 52.4121 33.4692 52.1387 32.813C51.8652 32.1528 51.7285 31.3833 51.7285 30.5044C51.7285 29.8559 51.8164 29.2622 51.9922 28.7231C52.168 28.184 52.4258 27.7172 52.7656 27.3227C53.1055 26.9282 53.5254 26.6235 54.0254 26.4087C54.5254 26.1938 55.0996 26.0864 55.748 26.0864C56.1738 26.0864 56.5996 26.1411 57.0254 26.2505C57.4551 26.3559 57.8652 26.5024 58.2559 26.6899L57.6699 28.1665C57.3496 28.0141 57.0273 27.8813 56.7031 27.768C56.3789 27.6547 56.0605 27.5981 55.748 27.5981Z" fill="white"/>
<path d="M59.041 32.2916V30.8267H62.1875V32.2916H59.041Z" fill="white"/>
<path d="M69.0195 34.7758H63.0312V33.5161L65.1816 31.3422C65.6152 30.8969 65.9629 30.5258 66.2246 30.229C66.4902 29.9282 66.6816 29.6547 66.7988 29.4087C66.9199 29.1626 66.9805 28.8989 66.9805 28.6176C66.9805 28.2778 66.8848 28.0239 66.6934 27.8559C66.5059 27.684 66.2539 27.5981 65.9375 27.5981C65.6055 27.5981 65.2832 27.6743 64.9707 27.8266C64.6582 27.979 64.332 28.1958 63.9922 28.477L63.0078 27.311C63.2539 27.1001 63.5137 26.9008 63.7871 26.7133C64.0645 26.5258 64.3848 26.3755 64.748 26.2622C65.1152 26.145 65.5547 26.0864 66.0664 26.0864C66.6289 26.0864 67.1113 26.188 67.5137 26.3911C67.9199 26.5942 68.2324 26.8715 68.4512 27.2231C68.6699 27.5708 68.7793 27.9653 68.7793 28.4067C68.7793 28.8794 68.6855 29.311 68.498 29.7016C68.3105 30.0922 68.0371 30.479 67.6777 30.8618C67.3223 31.2446 66.8926 31.6684 66.3887 32.1333L65.2871 33.1704V33.2524H69.0195V34.7758Z" fill="white"/>
<path d="M75.8398 30.4929C75.8398 31.1843 75.7852 31.8015 75.6758 32.3445C75.5703 32.8875 75.3984 33.3484 75.1602 33.7273C74.9258 34.1062 74.6172 34.3953 74.2344 34.5944C73.8516 34.7936 73.3867 34.8933 72.8398 34.8933C72.1523 34.8933 71.5879 34.7195 71.1465 34.3718C70.7051 34.0203 70.3789 33.5164 70.168 32.8601C69.957 32.2 69.8516 31.4109 69.8516 30.4929C69.8516 29.5672 69.9473 28.7761 70.1387 28.1199C70.334 27.4597 70.6504 26.9539 71.0879 26.6023C71.5254 26.2508 72.1094 26.075 72.8398 26.075C73.5234 26.075 74.0859 26.2508 74.5273 26.6023C74.9727 26.95 75.3027 27.4539 75.5176 28.114C75.7324 28.7703 75.8398 29.5633 75.8398 30.4929ZM71.6504 30.4929C71.6504 31.1453 71.6855 31.6902 71.7559 32.1277C71.8301 32.5613 71.9531 32.8875 72.125 33.1062C72.2969 33.325 72.5352 33.4343 72.8398 33.4343C73.1406 33.4343 73.377 33.3269 73.5488 33.1121C73.7246 32.8933 73.8496 32.5672 73.9238 32.1336C73.998 31.6961 74.0352 31.1492 74.0352 30.4929C74.0352 29.8406 73.998 29.2957 73.9238 28.8582C73.8496 28.4207 73.7246 28.0925 73.5488 27.8738C73.377 27.6511 73.1406 27.5398 72.8398 27.5398C72.5352 27.5398 72.2969 27.6511 72.125 27.8738C71.9531 28.0925 71.8301 28.4207 71.7559 28.8582C71.6855 29.2957 71.6504 29.8406 71.6504 30.4929Z" fill="white"/>
<path d="M31.15 30.8751C31.15 35.0144 27.7944 38.37 23.6551 38.37C19.5158 38.37 16.1602 35.0144 16.1602 30.8751C16.1602 26.7357 19.5158 23.3801 23.6551 23.3801C27.7944 23.3801 31.15 26.7357 31.15 30.8751Z" fill="#49AA19"/>
<path d="M23.6547 24.875L23.5742 25.1484V33.083L23.6547 33.1633L27.3378 30.9862L23.6547 24.875Z" fill="#C2C2C2"/>
<path d="M23.6538 24.875L19.9707 30.9862L23.6538 33.1633V29.3121V24.875Z" fill="white"/>
<path d="M23.6547 33.8608L23.6094 33.9161V36.7425L23.6547 36.875L27.3401 31.6848L23.6547 33.8608Z" fill="#B9B9B9"/>
<path d="M23.6538 36.875V33.8608L19.9707 31.6848L23.6538 36.875Z" fill="#F5F5F5"/>
</svg>
