<svg width="78" height="36" viewBox="0 0 78 36" fill="none" xmlns="http://www.w3.org/2000/svg">
<path fill-rule="evenodd" clip-rule="evenodd" d="M7.92043 4.88672H25.2001C25.6124 4.88672 25.9933 5.10728 26.1988 5.46512L31.2331 14.226C31.4942 14.6803 31.4167 15.2538 31.0442 15.6222L17.1872 29.3318C16.7383 29.776 16.0163 29.776 15.5674 29.3318L1.72916 15.6407C1.34812 15.2637 1.27677 14.6736 1.55697 14.2164L6.93823 5.43701C7.14783 5.0951 7.51973 4.88672 7.92043 4.88672ZM22.969 8.79816V11.2564H18.0466V12.9607C21.5038 13.1428 24.0974 13.8908 24.1166 14.7874V16.6566C24.0973 17.5532 21.5038 18.3013 18.0466 18.4834V22.666H14.7782V18.4834C11.321 18.3013 8.72733 17.5532 8.70813 16.6566L8.70823 14.7874C8.72743 13.8908 11.321 13.1428 14.7782 12.9607V11.2564H9.85583V8.79816H22.969ZM16.4123 17.1992C20.1017 17.1992 23.1854 16.5667 23.9399 15.722C23.3 15.0057 20.9852 14.442 18.0466 14.2871V16.0716C17.5199 16.0993 16.9732 16.1139 16.4123 16.1139C15.8516 16.1139 15.3049 16.0993 14.7782 16.0716V14.2871C11.8395 14.442 9.52473 15.0057 8.88483 15.722C9.63943 16.5667 12.7231 17.1992 16.4123 17.1992Z" fill="white"/>
<path d="M44.6621 6.70996V12.253C44.6621 12.8428 44.5313 13.3761 44.2696 13.8526C44.0117 14.3253 43.6192 14.7003 43.0918 14.9776C42.5684 15.255 41.9082 15.3936 41.1114 15.3936C39.9785 15.3936 39.1153 15.1046 38.5215 14.5264C37.9278 13.9483 37.6309 13.1827 37.6309 12.2296V6.70996H39.4414V11.9542C39.4414 12.6612 39.586 13.1573 39.875 13.4425C40.1641 13.7276 40.5918 13.8702 41.1582 13.8702C41.5567 13.8702 41.8789 13.8018 42.125 13.6651C42.375 13.5284 42.5586 13.3175 42.6758 13.0323C42.793 12.7471 42.8516 12.3839 42.8516 11.9425V6.70996H44.6621Z" fill="white"/>
<path d="M51.8145 12.8974C51.8145 13.4052 51.6915 13.8467 51.4454 14.2217C51.1993 14.5967 50.8399 14.8857 50.3673 15.0888C49.8985 15.292 49.3282 15.3935 48.6563 15.3935C48.3595 15.3935 48.0684 15.374 47.7833 15.3349C47.502 15.2959 47.2305 15.2392 46.9688 15.165C46.711 15.0869 46.4649 14.9912 46.2305 14.8779V13.1904C46.6368 13.3701 47.0587 13.5322 47.4962 13.6767C47.9337 13.8213 48.3673 13.8935 48.797 13.8935C49.0938 13.8935 49.3321 13.8545 49.5118 13.7763C49.6954 13.6982 49.8282 13.5908 49.9102 13.4541C49.9923 13.3174 50.0333 13.1611 50.0333 12.9853C50.0333 12.7705 49.961 12.5869 49.8165 12.4345C49.672 12.2822 49.4727 12.1396 49.2188 12.0068C48.9688 11.874 48.6856 11.7314 48.3692 11.5791C48.17 11.4853 47.9532 11.372 47.7188 11.2392C47.4845 11.1025 47.2618 10.9365 47.0509 10.7412C46.8399 10.5459 46.6661 10.3095 46.5294 10.0322C46.3966 9.75101 46.3302 9.41501 46.3302 9.02441C46.3302 8.51271 46.4473 8.07521 46.6817 7.71191C46.9161 7.34861 47.2501 7.07131 47.6837 6.87991C48.1212 6.68451 48.6368 6.58691 49.2305 6.58691C49.6759 6.58691 50.0997 6.63961 50.502 6.74511C50.9083 6.84671 51.3321 6.99511 51.7735 7.19041L51.1876 8.60251C50.793 8.44241 50.4395 8.31931 50.127 8.23341C49.8145 8.14351 49.4962 8.09861 49.172 8.09861C48.9454 8.09861 48.752 8.13571 48.5919 8.20991C48.4317 8.28021 48.3106 8.38181 48.2286 8.51461C48.1466 8.64351 48.1055 8.79391 48.1055 8.96581C48.1055 9.16891 48.1641 9.34081 48.2813 9.48141C48.4024 9.61811 48.5821 9.75101 48.8204 9.87991C49.0626 10.0088 49.3634 10.1592 49.7227 10.331C50.1602 10.5381 50.5333 10.7549 50.8419 10.9814C51.1544 11.2041 51.3946 11.4677 51.5626 11.7724C51.7305 12.0732 51.8145 12.4482 51.8145 12.8974Z" fill="white"/>
<path d="M60.4765 10.9112C60.4765 11.8761 60.2909 12.6827 59.9198 13.3311C59.5527 13.9757 59.0195 14.462 58.3202 14.7901C57.621 15.1143 56.7792 15.2764 55.7948 15.2764H53.3691V6.70996H56.0585C56.957 6.70996 57.7363 6.87016 58.3964 7.19046C59.0566 7.50686 59.5683 7.97756 59.9316 8.60256C60.2948 9.22366 60.4765 9.99316 60.4765 10.9112ZM58.5898 10.9581C58.5898 10.3253 58.496 9.80566 58.3085 9.39946C58.1249 8.98926 57.8515 8.68656 57.4882 8.49126C57.1288 8.29596 56.6835 8.19826 56.1523 8.19826H55.1855V13.7764H55.9648C56.8515 13.7764 57.5097 13.5401 57.9394 13.0675C58.373 12.5948 58.5898 11.8917 58.5898 10.9581Z" fill="white"/>
<path d="M65.5567 15.2764H63.7403V8.22176H61.4141V6.70996H67.8828V8.22176H65.5567V15.2764Z" fill="white"/>
<path d="M40.9942 28.2764H39.1778V21.2218H36.8516V19.71H43.3203V21.2218H40.9942V28.2764Z" fill="white"/>
<path d="M47.1348 19.71C47.9121 19.71 48.5528 19.8038 49.0567 19.9913C49.5645 20.1788 49.9414 20.462 50.1875 20.8409C50.4336 21.2198 50.5567 21.6983 50.5567 22.2764C50.5567 22.6671 50.4824 23.0089 50.334 23.3018C50.1856 23.5948 49.9903 23.8428 49.7481 24.046C49.5059 24.2491 49.2442 24.4151 48.9629 24.544L51.4824 28.2764H49.4668L47.4219 24.9893H46.4551V28.2764H44.6387V19.71H47.1348ZM47.0059 21.1983H46.4551V23.5128H47.041C47.6426 23.5128 48.0723 23.4132 48.3301 23.2139C48.5918 23.0108 48.7227 22.7139 48.7227 22.3233C48.7227 21.9171 48.5821 21.628 48.3008 21.4561C48.0235 21.2843 47.5918 21.1983 47.0059 21.1983Z" fill="white"/>
<path d="M56.1972 21.0986C55.8496 21.0986 55.541 21.167 55.2715 21.3037C55.0058 21.4365 54.7812 21.6299 54.5976 21.8838C54.4179 22.1377 54.2812 22.4443 54.1875 22.8037C54.0937 23.1631 54.0469 23.5674 54.0469 24.0166C54.0469 24.622 54.1211 25.1396 54.2695 25.5693C54.4219 25.9951 54.6562 26.3213 54.9726 26.5478C55.289 26.7705 55.6972 26.8818 56.1972 26.8818C56.5449 26.8818 56.8926 26.8427 57.2402 26.7646C57.5918 26.6865 57.9726 26.5752 58.3828 26.4306V27.9541C58.0039 28.1103 57.6308 28.2217 57.2636 28.2881C56.8965 28.3584 56.4844 28.3935 56.0273 28.3935C55.1445 28.3935 54.4179 28.2119 53.8476 27.8486C53.2812 27.4814 52.8613 26.9697 52.5879 26.3135C52.3144 25.6533 52.1777 24.8838 52.1777 24.0049C52.1777 23.3564 52.2656 22.7627 52.4414 22.2236C52.6172 21.6845 52.875 21.2177 53.2148 20.8232C53.5547 20.4287 53.9746 20.124 54.4746 19.9092C54.9746 19.6943 55.5488 19.5869 56.1972 19.5869C56.623 19.5869 57.0488 19.6416 57.4746 19.751C57.9043 19.8564 58.3144 20.0029 58.7051 20.1904L58.1191 21.667C57.7988 21.5146 57.4765 21.3818 57.1523 21.2685C56.8281 21.1552 56.5097 21.0986 56.1972 21.0986Z" fill="white"/>
<path d="M59.4902 25.792V24.3271H62.6367V25.792H59.4902Z" fill="white"/>
<path d="M69.4687 28.2763H63.4804V27.0166L65.6308 24.8427C66.0644 24.3974 66.4121 24.0263 66.6738 23.7295C66.9394 23.4287 67.1308 23.1552 67.248 22.9092C67.3691 22.6631 67.4297 22.3994 67.4297 22.1181C67.4297 21.7783 67.334 21.5244 67.1426 21.3564C66.9551 21.1845 66.7031 21.0986 66.3867 21.0986C66.0547 21.0986 65.7324 21.1748 65.4199 21.3271C65.1074 21.4795 64.7812 21.6963 64.4414 21.9775L63.457 20.8115C63.7031 20.6006 63.9629 20.4013 64.2363 20.2138C64.5136 20.0263 64.834 19.876 65.1972 19.7627C65.5644 19.6455 66.0039 19.5869 66.5156 19.5869C67.0781 19.5869 67.5605 19.6885 67.9629 19.8916C68.3691 20.0947 68.6816 20.372 68.9004 20.7236C69.1191 21.0713 69.2285 21.4658 69.2285 21.9072C69.2285 22.3799 69.1347 22.8115 68.9472 23.2021C68.7597 23.5927 68.4863 23.9795 68.1269 24.3623C67.7715 24.7451 67.3418 25.1689 66.8379 25.6338L65.7363 26.6709V26.7529H69.4687V28.2763Z" fill="white"/>
<path d="M76.2909 23.9931C76.2909 24.6845 76.2363 25.3017 76.1269 25.8447C76.0214 26.3877 75.8495 26.8486 75.6113 27.2275C75.3769 27.6064 75.0683 27.8955 74.6855 28.0947C74.3027 28.2939 73.8378 28.3935 73.2909 28.3935C72.6034 28.3935 72.039 28.2197 71.5976 27.872C71.1562 27.5205 70.83 27.0166 70.6191 26.3603C70.4081 25.7002 70.3027 24.9111 70.3027 23.9931C70.3027 23.0674 70.3984 22.2763 70.5898 21.6201C70.7851 20.9599 71.1015 20.4541 71.539 20.1025C71.9765 19.751 72.5605 19.5752 73.2909 19.5752C73.9745 19.5752 74.537 19.751 74.9784 20.1025C75.4238 20.4502 75.7538 20.9541 75.9687 21.6142C76.1835 22.2705 76.2909 23.0635 76.2909 23.9931ZM72.1015 23.9931C72.1015 24.6455 72.1366 25.1904 72.207 25.6279C72.2812 26.0615 72.4042 26.3877 72.5761 26.6064C72.748 26.8252 72.9863 26.9345 73.2909 26.9345C73.5917 26.9345 73.828 26.8271 73.9999 26.6123C74.1757 26.3935 74.3007 26.0674 74.3749 25.6338C74.4491 25.1963 74.4863 24.6494 74.4863 23.9931C74.4863 23.3408 74.4491 22.7959 74.3749 22.3584C74.3007 21.9209 74.1757 21.5927 73.9999 21.374C73.828 21.1513 73.5917 21.04 73.2909 21.04C72.9863 21.04 72.748 21.1513 72.5761 21.374C72.4042 21.5927 72.2812 21.9209 72.207 22.3584C72.1366 22.7959 72.1015 23.3408 72.1015 23.9931Z" fill="white"/>
<path d="M31.3786 24.3749C31.3786 28.5142 28.023 31.8698 23.8836 31.8698C19.7443 31.8698 16.3887 28.5142 16.3887 24.3749C16.3887 20.2355 19.7443 16.8799 23.8836 16.8799C28.023 16.8799 31.3786 20.2355 31.3786 24.3749Z" fill="#49AA19"/>
<path d="M28.9921 23.541C28.528 23.1125 27.8861 22.4582 27.3632 21.9941L27.3323 21.9725C27.2808 21.9312 27.2228 21.8987 27.1606 21.8766C25.8999 21.6415 20.0327 20.5447 19.9182 20.5587C19.8861 20.5632 19.8555 20.5748 19.8285 20.5927L19.7991 20.6159C19.7629 20.6527 19.7354 20.6971 19.7187 20.7458L19.7109 20.7659V20.8928C20.3715 22.732 22.9794 28.757 23.493 30.1708C23.5239 30.2667 23.5827 30.4493 23.6925 30.4585H23.7173C23.7761 30.4585 24.0267 30.1275 24.0267 30.1275C24.0267 30.1275 28.5064 24.695 28.9596 24.1164C29.0183 24.0452 29.07 23.9685 29.1143 23.8875C29.1256 23.8241 29.1202 23.7589 29.0988 23.6981C29.0774 23.6374 29.0406 23.5833 28.9921 23.541ZM25.176 24.1737L27.0879 22.5881L28.2094 23.6214L25.176 24.1737ZM24.4335 24.07L21.1418 21.3723L26.4676 22.3546L24.4335 24.07ZM24.7305 24.7769L28.0995 24.234L24.2479 28.8746L24.7305 24.7769ZM20.6947 21.6415L24.1581 24.5805L23.657 28.8776L20.6947 21.6415Z" fill="white"/>
</svg>
