<svg width="35" height="12" viewBox="0 0 35 12" fill="none" xmlns="http://www.w3.org/2000/svg">
<g clip-path="url(#clip0_14195_47429)">
<path d="M22.601 0.0585938C20.1894 0.0585938 18.0341 1.30434 18.0341 3.60544C18.0341 6.24465 21.8564 6.42693 21.8564 7.75297C21.8564 8.3113 21.2145 8.81103 20.1176 8.81103C18.5615 8.81103 17.3983 8.11277 17.3983 8.11277L16.9006 10.4352C16.9006 10.4352 18.2405 11.0251 20.0194 11.0251C22.6561 11.0251 24.7311 9.71832 24.7311 7.37758C24.7311 4.58862 20.8928 4.41177 20.8928 3.18127C20.8928 2.74388 21.4198 2.26483 22.5133 2.26483C23.7471 2.26483 24.7535 2.77268 24.7535 2.77268L25.2408 0.529858C25.2408 0.529858 24.1453 0.0585938 22.6007 0.0585938H22.601ZM0.536019 0.227991L0.477539 0.566448C0.477539 0.566448 1.4921 0.75143 2.40602 1.12072C3.58276 1.54387 3.6664 1.79051 3.86462 2.55551L6.02396 10.8502H8.91872L13.3782 0.227991H10.4902L7.62468 7.45009L6.45542 1.32806C6.34832 0.627431 5.805 0.227653 5.1403 0.227653H0.536359L0.536019 0.227991ZM14.5396 0.227991L12.2742 10.8502H15.0282L17.2854 0.227991H14.5396ZM29.8994 0.227991C29.2354 0.227991 28.8835 0.582371 28.6255 1.20135L24.5907 10.8502H27.4786L28.0373 9.24197H31.5556L31.8952 10.8502H34.4435L32.2206 0.227991H29.8994ZM30.2751 3.09792L31.1313 7.08385H28.838L30.2755 3.09792H30.2751Z" fill="#1434CB"/>
</g>
<defs>
<clipPath id="clip0_14195_47429">
<rect width="34" height="11" fill="white" transform="translate(0.460938 0.041748)"/>
</clipPath>
</defs>
</svg>
